<?xml version="1.0" encoding="UTF-8" standalone="no"?><!DOCTYPE svg PUBLIC "-//W3C//DTD SVG 1.1//EN" "http://www.w3.org/Graphics/SVG/1.1/DTD/svg11.dtd"><svg width="100%" height="100%" viewBox="0 0 2126 2125" version="1.1" xmlns="http://www.w3.org/2000/svg" xmlns:xlink="http://www.w3.org/1999/xlink" xml:space="preserve" xmlns:serif="http://www.serif.com/" style="fill-rule:evenodd;clip-rule:evenodd;stroke-linejoin:round;stroke-miterlimit:2;"><g><path d="M1321.46,1522.26l307.055,290.14l-0,-406.37c-0,-31.659 14.745,-60.717 39.899,-78.932c174.779,-126.638 271.058,-295.344 271.058,-474.893c0,-363.868 -393.359,-660.08 -876.492,-660.08c-483.134,-0 -876.493,296.212 -876.493,660.08c-0,363.868 392.925,660.514 876.059,660.514c61.151,-0 122.301,-6.072 181.717,-14.312c25.588,-3.903 59.85,7.806 77.197,23.853Zm337.413,579.847l-430.657,-407.237c-54.645,6.939 -110.157,10.408 -165.67,10.408c-585.919,0 -1062.55,-382.517 -1062.55,-852.639c-0,-470.123 476.628,-852.64 1062.55,-852.64c585.919,-0 1062.55,382.517 1062.55,852.64c-0,225.954 -112.76,443.233 -310.524,602.399l-0,575.943c-0,38.165 -21.685,72.861 -55.513,88.04c-12.143,5.638 -63.753,15.613 -100.183,-16.914Z" style="fill:#fff;fill-rule:nonzero;"/><path d="M1398.23,1161.43l-671.356,-0c-51.176,-0 -93.244,-42.936 -93.244,-96.28c-0,-53.344 41.634,-96.28 93.244,-96.28l671.356,0c51.176,0 93.244,42.936 93.244,96.28c-0,52.911 -41.635,96.28 -93.244,96.28Z" style="fill:#fff;fill-rule:nonzero;"/><path d="M1398.23,723.833l-671.356,-0c-51.176,-0 -93.244,-42.936 -93.244,-96.28c-0,-53.344 41.634,-96.28 93.244,-96.28l671.356,0c51.176,0 93.244,42.936 93.244,96.28c-0,53.344 -41.635,96.28 -93.244,96.28Z" style="fill:#fff;fill-rule:nonzero;"/></g></svg>