<?xml version="1.0" encoding="UTF-8" standalone="no"?><!DOCTYPE svg PUBLIC "-//W3C//DTD SVG 1.1//EN" "http://www.w3.org/Graphics/SVG/1.1/DTD/svg11.dtd"><svg width="100%" height="100%" viewBox="0 0 6667 5000" version="1.1" xmlns="http://www.w3.org/2000/svg" xmlns:xlink="http://www.w3.org/1999/xlink" xml:space="preserve" xmlns:serif="http://www.serif.com/" style="fill-rule:evenodd;clip-rule:evenodd;stroke-linejoin:round;stroke-miterlimit:2;"><g><g><path d="M3592.25,3059.76l307.054,290.14l0,-406.37c0,-31.659 14.746,-60.717 39.9,-78.932c174.778,-126.638 271.058,-295.344 271.058,-474.893c-0,-363.868 -393.359,-660.08 -876.493,-660.08c-483.134,-0 -876.493,296.212 -876.493,660.08c0,363.868 392.926,660.514 876.059,660.514c61.151,-0 122.302,-6.072 181.718,-14.312c25.587,-3.903 59.849,7.806 77.197,23.853Zm337.413,579.847l-430.657,-407.237c-54.645,6.939 -110.158,10.408 -165.671,10.408c-585.918,0 -1062.55,-382.517 -1062.55,-852.639c0,-470.123 476.629,-852.64 1062.55,-852.64c585.919,0 1062.55,382.517 1062.55,852.64c0,225.954 -112.76,443.233 -310.524,602.399l0,575.943c0,38.165 -21.684,72.861 -55.512,88.04c-12.144,5.638 -63.753,15.613 -100.183,-16.914Z" style="fill:#fff;fill-rule:nonzero;"/><path d="M3669.01,2698.93l-671.356,-0c-51.175,-0 -93.244,-42.936 -93.244,-96.28c0,-53.344 41.635,-96.28 93.244,-96.28l671.356,0c51.176,0 93.244,42.936 93.244,96.28c0,52.911 -41.634,96.28 -93.244,96.28Z" style="fill:#fff;fill-rule:nonzero;"/><path d="M3669.01,2261.33l-671.356,-0c-51.175,-0 -93.244,-42.936 -93.244,-96.28c0,-53.344 41.635,-96.28 93.244,-96.28l671.356,0c51.176,0 93.244,42.936 93.244,96.28c0,53.344 -41.634,96.28 -93.244,96.28Z" style="fill:#fff;fill-rule:nonzero;"/></g><text x="1232.75px" y="1050px" style="font-family:'Oswald-Regular', 'Oswald';font-size:1200px;fill:#fff;">Pr<tspan x="2242.9px " y="1050px ">o</tspan>claim</text><text x="1896.03px" y="4989.45px" style="font-family:'Oswald-Regular', 'Oswald';font-size:1200px;fill:#fff;">Christ</text></g></svg>