<?xml version="1.0" encoding="UTF-8" standalone="no"?><!DOCTYPE svg PUBLIC "-//W3C//DTD SVG 1.1//EN" "http://www.w3.org/Graphics/SVG/1.1/DTD/svg11.dtd"><svg width="100%" height="100%" viewBox="0 0 2628 2125" version="1.1" xmlns="http://www.w3.org/2000/svg" xmlns:xlink="http://www.w3.org/1999/xlink" xml:space="preserve" xmlns:serif="http://www.serif.com/" style="fill-rule:evenodd;clip-rule:evenodd;stroke-linejoin:round;stroke-miterlimit:2;"><g><path d="M2539.11,287.347l-184.165,-0.008l-0,-190.641c-0,-43.646 -31.934,-80.728 -75.103,-87.186c-7.537,-1.132 -186.951,-27.193 -402.998,12.119c-240.85,43.823 -432.932,151.895 -563.207,315.272c-130.284,-163.377 -322.367,-271.449 -563.208,-315.272c-216.055,-39.303 -395.47,-13.251 -402.998,-12.119c-43.168,6.466 -75.103,43.549 -75.103,87.186l0,190.641l-184.165,-0c-48.679,-0 -88.159,39.479 -88.159,88.168l-0,1661.33c-0,28.546 13.817,55.323 37.091,71.865c23.274,16.542 53.112,20.788 80.066,11.393c6.616,-2.291 667.263,-227.758 1159.89,-3.051c23.248,10.606 49.936,10.606 73.184,-0c491.245,-224.07 1153.31,0.778 1159.89,3.051c9.448,3.291 19.232,4.91 28.98,4.91c18.072,0 35.959,-5.555 51.086,-16.294c23.274,-16.542 37.091,-43.319 37.091,-71.865l0,-1661.33c-0.009,-48.689 -39.48,-88.169 -88.168,-88.169Zm-2362.78,1631.52l-0,-1455.2l95.996,0l0,1174.1c0,25.618 11.208,49.944 30.59,66.69c19.382,16.745 45.159,24.256 70.494,20.514c4.865,-0.708 387.862,-53.289 667.679,138.696c-344.685,-58.941 -689.662,9.236 -864.759,55.208Zm1049.14,-134.716c-123.242,-111.353 -283.771,-186.65 -475.048,-221.451c-92.052,-16.754 -177.451,-21.637 -245.742,-21.637c-20.275,-0 -39.047,0.433 -56.022,1.115l-0,-1364.52l-0.009,-0c169.445,-7.643 581.643,10.474 776.821,341.341l0,1265.16Zm176.319,-1265.15c194.479,-329.452 607.323,-348.392 776.821,-341.129l0,1364.3c-74.156,-2.99 -182.405,-1.203 -301.773,20.522c-191.277,34.801 -351.805,110.089 -475.048,221.451l-0,-1265.15Zm184.094,1344.71c279.853,-192.1 663.053,-139.466 667.83,-138.758c25.397,3.812 51.156,-3.654 70.6,-20.39c19.443,-16.755 30.625,-41.134 30.625,-66.805l-0,-1174.09l95.997,-0l-0,1455.19c-175.151,-45.99 -520.27,-114.193 -865.052,-55.155Z" style="fill:#fff;fill-rule:nonzero;"/></g></svg>