<?xml version="1.0" encoding="UTF-8" standalone="no"?><!DOCTYPE svg PUBLIC "-//W3C//DTD SVG 1.1//EN" "http://www.w3.org/Graphics/SVG/1.1/DTD/svg11.dtd"><svg width="100%" height="100%" viewBox="0 0 6667 5000" version="1.1" xmlns="http://www.w3.org/2000/svg" xmlns:xlink="http://www.w3.org/1999/xlink" xml:space="preserve" xmlns:serif="http://www.serif.com/" style="fill-rule:evenodd;clip-rule:evenodd;stroke-linejoin:round;stroke-miterlimit:2;"><g><g><path d="M4558.8,1824.85l-184.165,-0.008l0,-190.641c0,-43.646 -31.934,-80.728 -75.103,-87.186c-7.536,-1.132 -186.951,-27.193 -402.997,12.119c-240.851,43.823 -432.933,151.895 -563.208,315.272c-130.284,-163.377 -322.366,-271.449 -563.208,-315.272c-216.055,-39.303 -395.47,-13.251 -402.998,-12.119c-43.168,6.466 -75.102,43.549 -75.102,87.186l-0,190.641l-184.165,-0c-48.68,-0 -88.16,39.479 -88.16,88.168l0,1661.33c0,28.546 13.818,55.323 37.092,71.865c23.273,16.542 53.111,20.788 80.065,11.393c6.617,-2.291 667.263,-227.758 1159.89,-3.051c23.247,10.606 49.936,10.606 73.183,-0c491.245,-224.07 1153.31,0.778 1159.89,3.051c9.447,3.291 19.231,4.91 28.979,4.91c18.073,0 35.959,-5.555 51.086,-16.294c23.274,-16.542 37.091,-43.319 37.091,-71.865l0,-1661.33c-0.008,-48.689 -39.479,-88.169 -88.168,-88.169Zm-2362.78,1631.52l-0,-1455.2l95.997,0l-0,1174.1c-0,25.618 11.208,49.944 30.589,66.69c19.382,16.745 45.159,24.256 70.494,20.514c4.865,-0.708 387.862,-53.289 667.679,138.696c-344.684,-58.941 -689.661,9.236 -864.759,55.208Zm1049.15,-134.716c-123.243,-111.353 -283.772,-186.65 -475.049,-221.451c-92.051,-16.754 -177.451,-21.637 -245.742,-21.637c-20.275,-0 -39.046,0.433 -56.022,1.115l0,-1364.52l-0.009,-0c169.446,-7.643 581.643,10.474 776.822,341.341l-0,1265.16Zm176.318,-1265.15c194.48,-329.452 607.323,-348.392 776.822,-341.129l-0,1364.3c-74.157,-2.99 -182.405,-1.203 -301.773,20.522c-191.278,34.801 -351.806,110.089 -475.049,221.451l0,-1265.15Zm184.095,1344.71c279.852,-192.1 663.052,-139.466 667.829,-138.758c25.397,3.812 51.157,-3.654 70.6,-20.39c19.444,-16.755 30.625,-41.134 30.625,-66.805l0,-1174.09l95.997,-0l-0,1455.19c-175.151,-45.99 -520.269,-114.193 -865.051,-55.155Z" style="fill:#fff;fill-rule:nonzero;"/></g><text x="673.47px" y="1060.55px" style="font-family:'Oswald-Regular', 'Oswald';font-size:1200px;fill:#fff;">Str<tspan x="2129.53px " y="1060.55px ">e</tspan>ngthen</text><text x="1148.96px" y="4989.45px" style="font-family:'Oswald-Regular', 'Oswald';font-size:1200px;fill:#fff;">Believ<tspan x="3999.54px " y="4989.45px ">e</tspan>rs</text></g></svg>