<?xml version="1.0" encoding="UTF-8" standalone="no"?><!DOCTYPE svg PUBLIC "-//W3C//DTD SVG 1.1//EN" "http://www.w3.org/Graphics/SVG/1.1/DTD/svg11.dtd"><svg width="100%" height="100%" viewBox="0 0 6667 5000" version="1.1" xmlns="http://www.w3.org/2000/svg" xmlns:xlink="http://www.w3.org/1999/xlink" xml:space="preserve" xmlns:serif="http://www.serif.com/" style="fill-rule:evenodd;clip-rule:evenodd;stroke-linejoin:round;stroke-miterlimit:2;"><g><g><path d="M4052.71,2804.53l-0,-518.983c-0,-79.771 -24.888,-155.975 -71.963,-220.375l-321.35,-439.608l-1.425,-1.884c-75.762,-97.016 -216.342,-114.32 -313.367,-38.562c-3.904,3.046 -7.629,6.242 -11.27,9.487c-3.659,-3.254 -7.384,-6.445 -11.271,-9.479c-46.879,-36.604 -105.363,-52.733 -164.659,-45.446c-59.3,7.305 -112.12,37.13 -148.716,84.009l-322.779,441.487c-47.071,64.4 -71.959,140.609 -71.959,220.379l0,518.98l-312.375,312.375l545.175,545.175l315.729,-315.734l-0.6,-0.596l116.55,-99.904c20.555,-17.616 38.917,-37.237 54.896,-58.458c15.979,21.212 34.342,40.842 54.896,58.458l116.546,99.904l-0.596,0.596l315.733,315.734l545.175,-545.184l-312.371,-312.371Zm-1205.96,647.063l-334.683,-334.692l105.241,-105.246l334.684,334.692l-105.242,105.246Zm412.167,-486.904c-0,64.737 -28.192,126.025 -77.342,168.154l-125.246,107.35l-293.537,-293.546l-0,-661.1c-0,-47.979 14.966,-93.808 43.275,-132.537l320.541,-438.496c12.104,-15.096 29.467,-24.713 48.984,-27.117c19.833,-2.446 39.329,2.892 54.87,15.029c15.538,12.129 25.442,29.742 27.884,49.584c2.446,19.845 -2.892,39.333 -15.029,54.87l-282.075,389.35l-0,567.184l148.837,-0l0,-357.209c0,-41.033 33.383,-74.416 74.417,-74.416c41.033,-0 74.417,33.383 74.417,74.416l-0,558.484l0.004,-0Zm74.416,-724.709c-39.529,-35.433 -91.7,-57.029 -148.837,-57.029c-10.696,0 -21.2,0.804 -31.5,2.267l180.337,-248.975l180.338,248.971c-10.296,-1.459 -20.804,-2.263 -31.5,-2.263c-57.138,0 -109.309,21.604 -148.838,57.029Zm151.763,892.863c-49.154,-42.129 -77.346,-103.417 -77.346,-168.15l0,-558.492c0,-41.033 33.383,-74.416 74.417,-74.416c41.033,-0 74.416,33.383 74.416,74.416l0,357.209l148.838,-0l-0,-567.18l-280.459,-387.204l-1.612,-2.15c-25.258,-32.346 -19.488,-79.2 12.854,-104.454c32.088,-25.058 78.45,-19.571 103.854,12.092l320.538,438.496c28.312,38.733 43.283,84.558 43.283,132.537l0,661.104l-293.541,293.542l-125.242,-107.35Zm229.567,213.5l334.691,-334.692l105.246,105.246l-334.692,334.692l-105.245,-105.246Z" style="fill:#fff;fill-rule:nonzero;"/></g></g><g><g><rect x="2266.67" y="2017.6" width="248.063" height="148.837" style="fill:#fff;"/></g></g><g><g><path d="M2356.74,1641.46l-49.606,140.32l233.869,82.678l49.607,-140.32l-233.87,-82.678Z" style="fill:#fff;"/></g></g><g><g><rect x="4151.94" y="2017.6" width="248.063" height="148.837" style="fill:#fff;"/></g></g><g><g><path d="M4309.82,1641.48l-233.865,82.676l49.605,140.316l233.865,-82.676l-49.605,-140.316Z" style="fill:#fff;"/></g></g><text x="1390.95px" y="1050px" style="font-family:'Oswald-Regular', 'Oswald';font-size:1200px;fill:#fff;">W<tspan x="2272.79px " y="1050px ">o</tspan>rship</text><text x="2402.57px" y="4989.45px" style="font-family:'Oswald-Regular', 'Oswald';font-size:1200px;fill:#fff;">God</text></svg>