<?xml version="1.0" encoding="UTF-8" standalone="no"?>
<!-- Created with Inkscape (http://www.inkscape.org/) -->

<svg
   xmlns:dc="http://purl.org/dc/elements/1.1/"
   xmlns:cc="http://creativecommons.org/ns#"
   xmlns:rdf="http://www.w3.org/1999/02/22-rdf-syntax-ns#"
   xmlns:svg="http://www.w3.org/2000/svg"
   xmlns="http://www.w3.org/2000/svg"
   xmlns:sodipodi="http://sodipodi.sourceforge.net/DTD/sodipodi-0.dtd"
   xmlns:inkscape="http://www.inkscape.org/namespaces/inkscape"
   width="115.53136"
   height="124.99974"
   id="svg3512"
   version="1.1"
   inkscape:version="0.91 r13725"
   sodipodi:docname="IconWhite.svg"
   inkscape:export-filename="/home/gareth/Dropbox/CBC/Branding/Logos/IconWhite.png"
   inkscape:export-xdpi="346.14999"
   inkscape:export-ydpi="346.14999">
  <defs
     id="defs3514">
    <clipPath
       id="Clip0">
      <path
         inkscape:connector-curvature="0"
         d="m 0,0 92.4376,0 0,100 L 0,100 0,0 z"
         transform="translate(102.601,308.5)"
         id="path3212" />
    </clipPath>
    <clipPath
       id="Clip1">
      <path
         inkscape:connector-curvature="0"
         d="m 0,0 92.4376,0 0,100 L 0,100 0,0 z"
         transform="translate(102.601,308.5)"
         id="path3215" />
    </clipPath>
    <clipPath
       id="Clip2">
      <path
         inkscape:connector-curvature="0"
         d="m 0,0 55.9333,0 0,33.7196 L 0,33.7196 0,0 z"
         transform="translate(120.845,331.918)"
         id="path3218" />
    </clipPath>
    <clipPath
       id="Clip3">
      <path
         inkscape:connector-curvature="0"
         d="m 0,0 92.4376,0 0,16.9922 L 0,16.9922 0,0 z"
         transform="translate(102.601,391.508)"
         id="path3221" />
    </clipPath>
  </defs>
  <sodipodi:namedview
     id="base"
     pagecolor="#ffffff"
     bordercolor="#666666"
     borderopacity="1.0"
     inkscape:pageopacity="0.0"
     inkscape:pageshadow="2"
     inkscape:zoom="2.9640062"
     inkscape:cx="21.464703"
     inkscape:cy="58.397304"
     inkscape:document-units="px"
     inkscape:current-layer="layer1"
     showgrid="false"
     fit-margin-top="0"
     fit-margin-left="0"
     fit-margin-right="0"
     fit-margin-bottom="0"
     inkscape:window-width="1366"
     inkscape:window-height="750"
     inkscape:window-x="1440"
     inkscape:window-y="150"
     inkscape:window-maximized="1" />
  <metadata
     id="metadata3517">
    <rdf:RDF>
      <cc:Work
         rdf:about="">
        <dc:format>image/svg+xml</dc:format>
        <dc:type
           rdf:resource="http://purl.org/dc/dcmitype/StillImage" />
        <dc:title></dc:title>
      </cc:Work>
    </rdf:RDF>
  </metadata>
  <g
     inkscape:label="Layer 1"
     inkscape:groupmode="layer"
     id="layer1"
     transform="translate(-556.52004,-44.148029)">
    <g
       transform="matrix(1.2499999,0,0,1.2499999,428.25317,-341.47694)"
       clip-path="url(#Clip0)"
       id="svg3782"
       style="fill:#ffffff;fill-opacity:1"
       inkscape:export-xdpi="346.14999"
       inkscape:export-ydpi="346.14999">
      <g
         clip-path="url(#Clip1)"
         id="layer1-5"
         style="fill:#ffffff;fill-opacity:1">
        <path
           inkscape:connector-curvature="0"
           transform="translate(109.923,308.5)"
           d="m 0,0 0,4.16667 0,69.44443 0,4.1667 4.16667,0 69.44443,0 4.1667,0 0,-4.1667 0,-69.44443 L 77.7778,0 73.6111,0 4.16667,0 0,0 z m 8.34027,8.34027 61.09733,0 0,61.09733 -61.09733,0 0,-61.09733 z"
           id=" rect3818"
           style="fill:#ffffff;fill-opacity:1;fill-rule:nonzero;stroke:none" />
        <g
           clip-path="url(#Clip2)"
           id="text3755"
           style="fill:#ffffff;fill-opacity:1">
          <path
             inkscape:connector-curvature="0"
             transform="translate(120.845,331.918)"
             d="m 9.07553,33.7196 c -1.38962,0 -2.61322,-0.1967 -3.6708,-0.5903 C 4.34716,32.7358 3.48018,32.1947 2.80382,31.506 2.12746,30.8051 1.57407,29.9382 1.14367,28.9051 0.725551,27.8598 0.430411,26.7469 0.258249,25.5664 0.0860822,24.3858 0,23.0516 2.22222e-6,21.5636 l 0,-9.426 C 0,10.6496 0.0860822,9.31536 0.258249,8.13476 0.430411,6.95424 0.725551,5.84747 1.14367,4.81444 1.57407,3.7692 2.12746,2.90222 2.80382,2.21354 3.48018,1.52492 4.34716,0.983829 5.40473,0.590278 6.46231,0.196792 7.68591,3.35556e-5 9.07553,0 10.6127,3.35556e-5 11.9408,0.227536 13.0599,0.682509 14.179,1.13755 15.0705,1.80776 15.7346,2.69313 c 0.6763,0.88547 1.1805,1.91229 1.5126,3.08051 0.3443,1.16829 0.5472,2.53332 0.6087,4.09507 0.0123,0.23369 0.0184,0.59649 0.0185,1.08829 l -4.7223,0 0,-1.0514 C 13.1398,9.25387 13.1152,8.70047 13.0783,8.24544 13.0414,7.77816 12.9738,7.29856 12.8754,6.80664 12.777,6.31478 12.6295,5.90896 12.4327,5.5892 12.2482,5.2572 12.0084,4.95591 11.7133,4.68533 11.4305,4.40251 11.0677,4.1996 10.625,4.0766 10.1823,3.94136 9.66578,3.87373 9.07551,3.87369 8.31307,3.87373 7.65516,3.99671 7.10178,4.24262 6.56069,4.4886 6.13642,4.80833 5.829,5.20182 5.52156,5.58307 5.28176,6.09956 5.1096,6.75131 4.94971,7.40309 4.8452,8.04256 4.796,8.66971 4.7468,9.2846 4.72222,10.047 4.72222,10.957 l 0,11.8057 c 0,0.7869 0.03074,1.5002 0.09222,2.1397 0.07378,0.6394 0.20907,1.2789 0.40583,1.9183 0.19675,0.6273 0.44884,1.156 0.75629,1.5864 0.31973,0.4305 0.73784,0.7809 1.25435,1.0513 0.52878,0.2585 1.14365,0.3876 1.8446,0.3876 0.70096,0 1.30349,-0.1353 1.80769,-0.406 0.5042,-0.2704 0.8978,-0.6147 1.1806,-1.0329 0.2951,-0.418 0.5226,-0.9531 0.6825,-1.6049 0.1722,-0.6518 0.2828,-1.2849 0.332,-1.8998 0.0492,-0.6148 0.0738,-1.3282 0.0738,-2.1397 l 0,-1.1807 4.7223,0 0,1.1807 c -10e-5,1.7093 -0.1538,3.2095 -0.4612,4.5009 -0.2952,1.2911 -0.7809,2.4348 -1.4572,3.4308 -0.6641,0.9838 -1.5741,1.734 -2.7301,2.2505 -1.1437,0.5164 -2.5271,0.7747 -4.15037,0.7747"
             id=" path3910"
             style="fill:#ffffff;fill-opacity:1;fill-rule:nonzero;stroke:none" />
          <path
             inkscape:connector-curvature="0"
             transform="translate(140.096,332.25)"
             d="m 4.72222,14.1667 2.36111,0 c 3.93517,0 5.90277,-1.9676 5.90277,-5.90281 0,-0.65173 -0.0799,-1.22358 -0.2398,-1.71549 C 12.5864,6.04422 12.3958,5.62611 12.1745,5.29404 11.9531,4.96204 11.6149,4.68536 11.1599,4.46398 10.7172,4.23036 10.3114,4.05204 9.94249,3.92904 9.57356,3.80609 9.04476,3.72 8.35611,3.6708 7.67976,3.60933 7.11407,3.57244 6.65907,3.56011 6.20407,3.54784 5.55844,3.54169 4.72222,3.54167 l 0,10.62503 z m 0,15.3473 2.36111,0 c 2.04136,0 3.53547,-0.4673 4.48247,-1.402 0.9468,-0.9469 1.4203,-2.4471 1.4203,-4.5009 0,-2.0537 -0.4735,-3.5478 -1.4203,-4.4824 -0.947,-0.9469 -2.44111,-1.4203 -4.48247,-1.4204 l -2.36111,0 0,11.8057 z M 0,33.0556 0,0 7.08333,0 c 1.52487,3.31111e-5 2.88989,0.1599 4.09507,0.4796 1.2051,0.319767 2.2566,0.80552 3.1543,1.45725 0.91,0.65179 1.6048,1.51262 2.0844,2.58246 0.4919,1.06991 0.7378,2.31809 0.7379,3.74458 -10e-5,2.06601 -0.4366,3.64011 -1.3097,4.72221 -0.8732,1.0699 -2.2197,1.8569 -4.0397,2.3611 1.9675,0.6518 3.4432,1.611 4.427,2.8776 0.9838,1.2544 1.4757,3.0498 1.4757,5.3863 0,2.9145 -0.8485,5.2202 -2.5455,6.9173 -1.6848,1.6847 -3.9844,2.5272 -6.89891,2.5272 L 0,33.0556"
             id=" path3912"
             style="fill:#ffffff;fill-opacity:1;fill-rule:nonzero;stroke:none" />
          <path
             inkscape:connector-curvature="0"
             transform="translate(158.904,331.918)"
             d="m 9.07553,33.7196 c -1.38962,0 -2.61322,-0.1967 -3.6708,-0.5903 C 4.34716,32.7358 3.48018,32.1947 2.80382,31.506 2.12746,30.8051 1.57407,29.9382 1.14366,28.9051 0.725549,27.8598 0.430411,26.7469 0.258249,25.5664 0.0860822,24.3858 0,23.0516 2.22222e-6,21.5636 l 0,-9.426 C 0,10.6496 0.0860822,9.31536 0.258249,8.13476 0.430411,6.95424 0.725549,5.84747 1.14366,4.81444 1.57407,3.7692 2.12746,2.90222 2.80382,2.21354 3.48018,1.52492 4.34716,0.983829 5.40473,0.590278 6.46231,0.196792 7.68591,3.35556e-5 9.07553,0 10.6127,3.35556e-5 11.9408,0.227536 13.0599,0.682509 14.179,1.13755 15.0705,1.80776 15.7346,2.69313 c 0.6763,0.88547 1.1805,1.91229 1.5126,3.08051 0.3443,1.16829 0.5472,2.53332 0.6087,4.09507 0.0123,0.23369 0.0184,0.59649 0.0185,1.08829 l -4.7223,0 0,-1.0514 C 13.1398,9.25387 13.1152,8.70047 13.0783,8.24544 13.0414,7.77816 12.9738,7.29856 12.8754,6.80664 12.777,6.31478 12.6295,5.90896 12.4327,5.5892 12.2482,5.2572 12.0084,4.95591 11.7133,4.68533 11.4305,4.40251 11.0677,4.1996 10.625,4.0766 10.1823,3.94136 9.66578,3.87373 9.07551,3.87369 8.31307,3.87373 7.65516,3.99671 7.10178,4.24262 6.56069,4.4886 6.13642,4.80833 5.829,5.20182 5.52156,5.58307 5.28176,6.09956 5.1096,6.75131 4.94971,7.40309 4.8452,8.04256 4.796,8.66971 4.74682,9.2846 4.72222,10.047 4.72222,10.957 l 0,11.8057 c 0,0.7869 0.03074,1.5002 0.09222,2.1397 0.07378,0.6394 0.20907,1.2789 0.40583,1.9183 0.19675,0.6273 0.44884,1.156 0.75629,1.5864 0.31973,0.4305 0.73784,0.7809 1.25435,1.0513 0.52878,0.2585 1.14365,0.3876 1.8446,0.3876 0.70096,0 1.30349,-0.1353 1.80769,-0.406 0.5042,-0.2704 0.8978,-0.6147 1.1806,-1.0329 0.2951,-0.418 0.5226,-0.9531 0.6825,-1.6049 0.1722,-0.6518 0.2828,-1.2849 0.332,-1.8998 0.0492,-0.6148 0.0738,-1.3282 0.0738,-2.1397 l 0,-1.1807 4.7223,0 0,1.1807 c -10e-5,1.7093 -0.1538,3.2095 -0.4612,4.5009 -0.2952,1.2911 -0.7809,2.4348 -1.4572,3.4308 -0.6641,0.9838 -1.5741,1.734 -2.7301,2.2505 -1.1437,0.5164 -2.5271,0.7747 -4.15039,0.7747"
             id=" path3914"
             style="fill:#ffffff;fill-opacity:1;fill-rule:nonzero;stroke:none" />
        </g>
        <g
           clip-path="url(#Clip3)"
           id="text3822"
           style="fill:#ffffff;fill-opacity:1">
          <path
             inkscape:connector-curvature="0"
             transform="translate(102.601,395.367)"
             d="m 2.31251,10.2812 c -0.48439,0 -0.88803,-0.0807 -1.21095,-0.2421 C 0.778644,9.8776 0.536458,9.66667 0.375002,9.40624 0.213542,9.14584 0.106771,8.81511 0.0546887,8.41407 0.00781244,8.00782 0,7.60418 0.0312511,7.20313 0.0625,6.79689 0.125,6.32553 0.218751,5.78907 0.291667,5.35678 0.380209,4.92189 0.484376,4.48438 0.598958,3.95313 0.721353,3.48438 0.851564,3.07813 0.981769,2.67189 1.15364,2.26824 1.36719,1.86719 1.58073,1.46095 1.81771,1.13022 2.07813,0.875 2.34376,0.614593 2.67187,0.403656 3.06251,0.242189 3.45311,0.08074 3.89062,1.11111e-5 4.375,0 5.42709,1.11111e-5 6.125,0.283864 6.46876,0.851562 6.81249,1.41928 6.88802,2.26042 6.69531,3.375 l -0.05469,0.26562 -2,0 0.06251,-0.28124 C 4.74478,3.10938 4.77082,2.89064 4.78124,2.70313 4.79167,2.51562 4.78124,2.32813 4.75,2.14063 4.72396,1.95313 4.65104,1.8099 4.53124,1.71094 4.41667,1.60678 4.26042,1.5547 4.06251,1.55469 3.86458,1.5547 3.68489,1.61459 3.52344,1.73438 3.36718,1.84897 3.23178,2.01563 3.11718,2.23438 3.0026,2.45313 2.90624,2.67969 2.82813,2.91407 2.75,3.14324 2.67969,3.40887 2.61718,3.71093 2.46613,4.35678 2.27082,5.33073 2.03125,6.63282 1.98437,6.91927 1.95312,7.17187 1.9375,7.39062 c -0.01042,0.21356 0,0.42189 0.03125,0.625 C 2,8.21353 2.07031,8.3672 2.17969,8.47656 2.29427,8.58593 2.44791,8.64062 2.64062,8.64062 2.81771,8.64062 2.97656,8.60678 3.11718,8.53907 3.26302,8.47136 3.3776,8.38802 3.46093,8.28907 3.54947,8.19011 3.6302,8.05729 3.70313,7.89062 3.77604,7.72396 3.83073,7.57031 3.86718,7.42969 3.90884,7.28387 3.95051,7.10156 3.99218,6.88282 l 0.05469,-0.2422 2,0 -0.05469,0.25782 C 5.8724,7.42449 5.71353,7.89062 5.51562,8.29687 5.32291,8.69791 5.08073,9.04949 4.78907,9.35156 4.4974,9.65364 4.14322,9.88542 3.72656,10.0469 3.30989,10.2031 2.83853,10.2812 2.31251,10.2812"
             id=" path3917"
             style="fill:#ffffff;fill-opacity:1;fill-rule:nonzero;stroke:none" />
          <path
             inkscape:connector-curvature="0"
             transform="translate(109.195,395.367)"
             d="m 0,10.1406 2,-9.999973 2,0 L 3.73438,1.47656 C 4.01562,1.08074 4.3802,0.736989 4.82813,0.445313 5.27604,0.148449 5.73698,1.11111e-5 6.21093,0 6.22656,1.11111e-5 6.33071,0.0104222 6.52344,0.0312511 L 6.07813,2.2422 C 5.73958,2.09636 5.3854,2.02345 5.01562,2.02344 4.59896,2.02345 4.23698,2.14845 3.92969,2.39844 3.6276,2.64844 3.43489,2.97918 3.35156,3.39062 L 2,10.1406 l -2,0"
             id=" path3919"
             style="fill:#ffffff;fill-opacity:1;fill-rule:nonzero;stroke:none" />
          <path
             inkscape:connector-curvature="0"
             transform="translate(114.815,395.367)"
             d="M 4.9974,9.34376 C 4.40884,9.96876 3.57811,10.2812 2.5052,10.2812 1.43229,10.2812 0.726562,9.96876 0.388022,9.34376 0.04948,8.71876 0,7.81771 0.239584,6.64062 l 0.593752,-3 C 1.07292,2.46356 1.48698,1.56251 2.07552,0.9375 2.66407,0.312511 3.4948,1.11111e-5 4.56771,0 5.64062,1.11111e-5 6.34636,0.312511 6.68489,0.9375 7.02342,1.56251 7.07291,2.46356 6.83333,3.64062 l -0.59375,3 C 6,7.81771 5.58593,8.71876 4.9974,9.34376 z M 2.47396,8.57813 C 2.57291,8.6198 2.69271,8.64062 2.83333,8.64062 2.97396,8.64062 3.10156,8.6198 3.21616,8.57813 3.33593,8.53647 3.43489,8.48698 3.51302,8.42969 3.59636,8.3672 3.67187,8.27864 3.73958,8.16407 3.81249,8.04427 3.86978,7.94011 3.91147,7.85156 3.95833,7.76302 4.0026,7.63542 4.04427,7.46876 4.09113,7.30209 4.125,7.17187 4.14584,7.07813 4.16667,6.97918 4.19791,6.83333 4.23958,6.64062 l 0.59375,-3 C 4.875,3.44793 4.90364,3.30469 4.91927,3.21093 4.93489,3.11198 4.95311,2.97918 4.97396,2.81249 5,2.64584 5.0078,2.51824 4.9974,2.42969 4.99218,2.34116 4.97656,2.2396 4.95051,2.125 4.92969,2.00522 4.88802,1.91668 4.82551,1.85938 4.76822,1.79688 4.69009,1.7448 4.59116,1.70313 4.4974,1.66147 4.3802,1.64063 4.23958,1.64063 4.09896,1.64063 3.96876,1.66147 3.84896,1.70313 3.73438,1.7448 3.63542,1.79688 3.55209,1.85938 3.47396,1.91668 3.39842,2.00522 3.32551,2.125 3.2578,2.2396 3.20051,2.34116 3.15364,2.42969 3.11198,2.51824 3.06771,2.64584 3.02084,2.81249 2.97916,2.97918 2.94791,3.11198 2.92709,3.21093 2.90624,3.30469 2.875,3.44793 2.83333,3.64062 l -0.59375,3 C 2.19792,6.83333 2.16927,6.97918 2.15365,7.07813 2.13802,7.17187 2.11719,7.30209 2.09115,7.46876 2.0703,7.63542 2.0625,7.76302 2.06771,7.85156 2.07813,7.94011 2.09375,8.04427 2.11458,8.16407 2.14062,8.27864 2.18229,8.3672 2.23958,8.42969 2.30209,8.48698 2.3802,8.53647 2.47396,8.57813"
             id=" path3921"
             style="fill:#ffffff;fill-opacity:1;fill-rule:nonzero;stroke:none" />
          <path
             inkscape:connector-curvature="0"
             transform="translate(122.164,395.367)"
             d="m 2.31251,10.2812 c -0.48439,0 -0.88803,-0.0807 -1.21095,-0.2421 C 0.778647,9.8776 0.536458,9.66667 0.375002,9.40624 0.213542,9.14584 0.106771,8.81511 0.0546889,8.41407 0.00781333,8.00782 0,7.60418 0.0312511,7.20313 0.0625,6.79689 0.125,6.32553 0.218751,5.78907 0.291667,5.35678 0.380209,4.92189 0.484378,4.48438 0.598958,3.95313 0.721353,3.48438 0.851564,3.07813 0.981771,2.67189 1.15365,2.26824 1.36719,1.86719 1.58073,1.46095 1.81771,1.13022 2.07813,0.875 2.34376,0.614593 2.67187,0.403656 3.06251,0.242189 3.45313,0.08074 3.89062,1.11111e-5 4.375,0 5.42709,1.11111e-5 6.125,0.283864 6.46876,0.851562 6.81249,1.41928 6.88802,2.26042 6.69531,3.375 l -0.05469,0.26562 -2,0 0.06251,-0.28124 C 4.7448,3.10938 4.77082,2.89064 4.78124,2.70313 4.79167,2.51562 4.78124,2.32813 4.75,2.14063 4.72396,1.95313 4.65104,1.8099 4.53124,1.71094 4.41667,1.60678 4.26042,1.5547 4.06251,1.55469 3.86458,1.5547 3.68489,1.61459 3.52344,1.73438 3.36718,1.84897 3.23178,2.01563 3.1172,2.23438 3.0026,2.45313 2.90624,2.67969 2.82813,2.91407 2.75,3.14324 2.67969,3.40887 2.6172,3.71093 2.46616,4.35678 2.27082,5.33073 2.03125,6.63282 1.98437,6.91927 1.95312,7.17187 1.9375,7.39062 c -0.01042,0.21356 0,0.42189 0.03125,0.625 C 2,8.21353 2.07031,8.3672 2.17969,8.47656 2.29427,8.58593 2.44791,8.64062 2.64062,8.64062 2.81771,8.64062 2.97656,8.60678 3.1172,8.53907 3.26302,8.47136 3.3776,8.38802 3.46093,8.28907 3.54947,8.19011 3.6302,8.05729 3.70313,7.89062 3.77604,7.72396 3.83073,7.57031 3.8672,7.42969 3.90884,7.28387 3.95051,7.10156 3.9922,6.88282 l 0.05469,-0.2422 2,0 L 5.9922,6.89844 C 5.8724,7.42449 5.71353,7.89062 5.51562,8.29687 5.32291,8.69791 5.08073,9.04949 4.78907,9.35156 4.4974,9.65364 4.14322,9.88542 3.72656,10.0469 3.30989,10.2031 2.83853,10.2812 2.31251,10.2812"
             id=" path3923"
             style="fill:#ffffff;fill-opacity:1;fill-rule:nonzero;stroke:none" />
          <path
             inkscape:connector-curvature="0"
             transform="translate(128.757,391.508)"
             d="m 0,14 2.79687,-14 2,0 L 3.25782,7.69531 6.5,4 8.5,4 5.56251,7.49218 6.5,14 4.5,14 3.96876,9.16407 2.70313,10.5 2,14 0,14"
             id=" path3925"
             style="fill:#ffffff;fill-opacity:1;fill-rule:nonzero;stroke:none" />
          <path
             inkscape:connector-curvature="0"
             transform="translate(136.64,395.367)"
             d="m 2.28907,10.2812 c -0.48438,0 -0.88803,-0.0833 -1.21094,-0.25 C 0.755209,9.86458 0.515624,9.64844 0.359378,9.38282 0.203127,9.11198 0.101562,8.76822 0.0546889,8.35156 0.00781333,7.92969 0,7.51042 0.0312533,7.09376 0.0677089,6.67189 0.138022,6.18229 0.242189,5.625 0.309896,5.18751 0.395833,4.75 0.500002,4.31249 0.619791,3.79167 0.747396,3.33073 0.882816,2.92969 1.01823,2.52344 1.1901,2.13022 1.39844,1.75 1.61198,1.3698 1.85156,1.0573 2.11719,0.8125 2.38282,0.567718 2.70573,0.372407 3.08593,0.226562 3.47136,0.0755311 3.89842,1.11111e-5 4.3672,0 4.79427,1.11111e-5 5.15884,0.0573022 5.46093,0.171876 5.76302,0.28126 6,0.450531 6.17187,0.679689 6.34376,0.903656 6.47136,1.15366 6.55469,1.42969 6.64322,1.70574 6.68489,2.04168 6.67969,2.43751 6.67447,2.82813 6.64842,3.21356 6.60156,3.59376 6.55469,3.97396 6.48176,4.41147 6.38282,4.90624 l -0.04689,0.23438 -4,0 -0.10155,0.5 C 2.22396,5.70833 2.20312,5.81511 2.17188,5.96093 2.125,6.15364 2.08333,6.35418 2.04688,6.56249 2.01562,6.76562 1.98437,6.96616 1.95313,7.16407 1.92708,7.36198 1.91927,7.55209 1.92969,7.73438 1.94011,7.91147 1.96354,8.06771 2,8.20313 c 0.04166,0.1354 0.11458,0.24218 0.21875,0.32031 0.10938,0.07812 0.24738,0.11718 0.41407,0.11718 0.20831,0 0.388,-0.03906 0.53905,-0.11718 C 3.32811,8.44011 3.45311,8.31771 3.54687,8.15624 3.64582,7.9948 3.72396,7.83333 3.78124,7.67187 3.83853,7.51042 3.89582,7.30729 3.95313,7.06249 l 0.08594,-0.42187 1.98437,0 -0.08593,0.39845 C 5.67707,8.10678 5.2526,8.91407 4.66407,9.46093 4.07551,10.0078 3.28384,10.2812 2.28907,10.2812 z m 0.25,-6.14058 1.98437,0 0.11718,-0.60155 C 4.68749,3.27344 4.71613,3.04167 4.72656,2.84376 4.74218,2.64584 4.73696,2.44793 4.71093,2.25 4.69009,2.05209 4.6224,1.90105 4.50782,1.79688 4.39322,1.69272 4.23698,1.64063 4.03907,1.64063 3.83593,1.64063 3.65364,1.69532 3.4922,1.80469 3.33073,1.91407 3.19531,2.07293 3.08593,2.28124 2.98178,2.48438 2.89582,2.68491 2.82813,2.88282 2.76562,3.08073 2.70573,3.31771 2.64844,3.59376 L 2.53907,4.14062"
             id=" path3927"
             style="fill:#ffffff;fill-opacity:1;fill-rule:nonzero;stroke:none" />
          <path
             inkscape:connector-curvature="0"
             transform="translate(143.414,395.367)"
             d="m 0,10.1406 2,-9.999973 2,0 L 3.78124,1.21875 C 4.13542,0.947927 4.41927,0.742198 4.63282,0.601562 4.85156,0.45574 5.13802,0.320322 5.49218,0.195313 5.85156,0.0651156 6.21873,1.11111e-5 6.59376,0 7.02082,1.11111e-5 7.33593,0.15626 7.53907,0.468751 7.74218,0.78126 7.79687,1.16407 7.70313,1.61719 L 6,10.1406 l -2,0 1.5,-7.49998 C 5.56771,2.29167 5.56771,2.03907 5.5,1.88281 5.43749,1.72136 5.2552,1.64063 4.95313,1.64063 4.78124,1.64063 4.60156,1.67709 4.41407,1.75 4.23176,1.81772 4.09376,1.88282 4,1.94531 3.90624,2.00261 3.76822,2.09636 3.58593,2.22656 L 2,10.1406 l -2,0"
             id=" path3929"
             style="fill:#ffffff;fill-opacity:1;fill-rule:nonzero;stroke:none" />
          <path
             inkscape:connector-curvature="0"
             transform="translate(151.164,391.508)"
             d="m 0,14 2.79687,-14 2,0 -1.01563,5.07813 C 4.13542,4.80731 4.41927,4.60158 4.63282,4.46093 4.85156,4.31511 5.13802,4.17969 5.49218,4.05469 5.85156,3.92449 6.21873,3.85938 6.59376,3.85938 c 0.42706,0 0.74217,0.15624 0.94531,0.46875 0.20311,0.31249 0.2578,0.69531 0.16406,1.14843 L 6,14 4,14 5.5,6.5 C 5.56771,6.15627 5.57551,5.90364 5.52344,5.74218 5.47136,5.58073 5.30209,5.5 5.01562,5.5 4.60938,5.5 4.1328,5.69531 3.58593,6.08593 L 2,14 0,14 z"
             id=" path3931"
             style="fill:#ffffff;fill-opacity:1;fill-rule:nonzero;stroke:none" />
          <path
             inkscape:connector-curvature="0"
             transform="translate(159,392.008)"
             d="m 2.29687,2 0.40626,-2 2,0 -0.40626,2 -2,0 z M 0,13.5 l 2,-10 2,0 -2,10 -2,0"
             id=" path3933"
             style="fill:#ffffff;fill-opacity:1;fill-rule:nonzero;stroke:none" />
          <path
             inkscape:connector-curvature="0"
             transform="translate(162.922,391.508)"
             d="m 0,14 2.79687,-14 2,0 L 2,14 0,14 z"
             id=" path3935"
             style="fill:#ffffff;fill-opacity:1;fill-rule:nonzero;stroke:none" />
          <path
             inkscape:connector-curvature="0"
             transform="translate(166.703,391.508)"
             d="m 0,14 2.79687,-14 2,0 L 2,14 0,14 z"
             id=" path3937"
             style="fill:#ffffff;fill-opacity:1;fill-rule:nonzero;stroke:none" />
          <path
             inkscape:connector-curvature="0"
             transform="translate(170.062,403.508)"
             d="M 0,2 0.398438,0 2.39844,0 2,2 0,2 z"
             id=" path3939"
             style="fill:#ffffff;fill-opacity:1;fill-rule:nonzero;stroke:none" />
          <path
             inkscape:connector-curvature="0"
             transform="translate(173.752,395.367)"
             d="M 4.9974,9.34376 C 4.40884,9.96876 3.57813,10.2812 2.5052,10.2812 1.43229,10.2812 0.726562,9.96876 0.388022,9.34376 0.04948,8.71876 0,7.81771 0.239584,6.64062 l 0.593752,-3 C 1.07292,2.46356 1.48698,1.56251 2.07552,0.9375 2.66407,0.312511 3.49478,1.11111e-5 4.56771,0 5.64062,1.11111e-5 6.34636,0.312511 6.68489,0.9375 7.02342,1.56251 7.07291,2.46356 6.83333,3.64062 l -0.59375,3 C 6,7.81771 5.58593,8.71876 4.9974,9.34376 z M 2.47396,8.57813 C 2.57291,8.6198 2.69271,8.64062 2.83333,8.64062 2.97396,8.64062 3.10156,8.6198 3.21616,8.57813 3.33593,8.53647 3.43489,8.48698 3.51302,8.42969 3.59636,8.3672 3.67187,8.27864 3.73958,8.16407 3.81249,8.04427 3.86978,7.94011 3.91147,7.85156 3.95833,7.76302 4.0026,7.63542 4.04427,7.46876 4.09113,7.30209 4.125,7.17187 4.14584,7.07813 4.16667,6.97918 4.19791,6.83333 4.23958,6.64062 l 0.59375,-3 C 4.875,3.44793 4.90364,3.30469 4.91927,3.21093 4.93489,3.11198 4.95311,2.97918 4.97396,2.81249 5,2.64584 5.0078,2.51824 4.9974,2.42969 4.99218,2.34116 4.97656,2.2396 4.95051,2.125 4.92967,2.00522 4.88802,1.91668 4.82551,1.85938 4.76822,1.79688 4.69009,1.7448 4.59116,1.70313 4.4974,1.66147 4.3802,1.64063 4.23958,1.64063 4.09896,1.64063 3.96876,1.66147 3.84896,1.70313 3.73438,1.7448 3.63542,1.79688 3.55209,1.85938 3.47396,1.91668 3.39842,2.00522 3.32553,2.125 3.2578,2.2396 3.20051,2.34116 3.15364,2.42969 3.11198,2.51824 3.06771,2.64584 3.02084,2.81249 2.97916,2.97918 2.94791,3.11198 2.92709,3.21093 2.90624,3.30469 2.875,3.44793 2.83333,3.64062 l -0.59375,3 C 2.19792,6.83333 2.16927,6.97918 2.15365,7.07813 2.13802,7.17187 2.11719,7.30209 2.09115,7.46876 2.0703,7.63542 2.0625,7.76302 2.06771,7.85156 2.07813,7.94011 2.09375,8.04427 2.11458,8.16407 2.14062,8.27864 2.18229,8.3672 2.23958,8.42969 2.30209,8.48698 2.3802,8.53647 2.47396,8.57813"
             id=" path3941"
             style="fill:#ffffff;fill-opacity:1;fill-rule:nonzero;stroke:none" />
          <path
             inkscape:connector-curvature="0"
             transform="translate(180.945,395.367)"
             d="m 0,10.1406 2,-9.999973 2,0 L 3.73438,1.47656 C 4.01562,1.08074 4.3802,0.736989 4.82813,0.445313 5.27604,0.148449 5.73698,1.11111e-5 6.21093,0 6.22656,1.11111e-5 6.33073,0.0104222 6.52344,0.0312511 L 6.07813,2.2422 C 5.73958,2.09636 5.38542,2.02345 5.01562,2.02344 4.59896,2.02345 4.23698,2.14845 3.92969,2.39844 3.6276,2.64844 3.43489,2.97918 3.35156,3.39062 L 2,10.1406 l -2,0"
             id=" path3943"
             style="fill:#ffffff;fill-opacity:1;fill-rule:nonzero;stroke:none" />
          <path
             inkscape:connector-curvature="0"
             transform="translate(185.174,395.367)"
             d="M 3.88802,3.64062 C 3.60676,5.05731 3.8828,5.76564 4.71613,5.76562 5.54947,5.76564 6.10676,5.05731 6.38802,3.64062 6.44531,3.35418 6.47916,3.09116 6.48958,2.85158 6.5052,2.60678 6.49218,2.3698 6.45051,2.14063 6.40884,1.90626 6.31509,1.72397 6.16927,1.59376 6.02342,1.45835 5.83071,1.39064 5.59113,1.39063 5.34636,1.39064 5.125,1.45835 4.92709,1.59376 4.72916,1.72397 4.56249,1.90626 4.42709,2.14063 4.29687,2.3698 4.18749,2.60678 4.09896,2.85158 4.01562,3.09116 3.94531,3.35418 3.88802,3.64062 z m 0.14845,8.01568 c 0.14062,-10e-5 0.26822,-0.0026 0.3828,-0.0079 0.11457,-0.0052 0.2448,-0.0156 0.39062,-0.0312 0.15104,-0.0156 0.28124,-0.0417 0.39062,-0.0781 0.11458,-0.0313 0.22396,-0.073 0.32813,-0.125 0.10938,-0.0521 0.19792,-0.1224 0.26563,-0.211 0.07291,-0.0833 0.11977,-0.1797 0.14062,-0.289 C 6.04947,10.3568 5.58333,10.0156 4.53647,9.89062 L 2.92709,9.69531 C 2.69791,9.84113 2.48438,10.0521 2.28647,10.3281 c -0.19793,0.2761 -0.32814,0.5651 -0.39064,0.8672 -0.01562,0.0833 -0.0026,0.1537 0.03907,0.2109 0.04687,0.0626 0.12239,0.1094 0.22656,0.1407 0.10936,0.0312 0.21874,0.0573 0.32812,0.0781 0.11458,0.0208 0.2526,0.0338 0.41406,0.0391 0.16145,0.0052 0.29947,0.0078 0.41407,0.0078 0.11458,0 0.24738,-0.0026 0.39842,-0.0078 0.15627,-0.0052 0.26303,-0.0079 0.32034,-0.0078 z m -0.29689,1.4765 c -0.25,0 -0.45314,-0.0026 -0.60938,-0.0078 -0.15104,0 -0.36198,-0.0052 -0.6328,-0.0156 C 2.22656,13.099 2.0026,13.0781 1.82552,13.0469 1.65364,13.0208 1.45312,12.9844 1.22396,12.9375 0.999998,12.8958 0.817707,12.8385 0.677082,12.7656 0.541664,12.6927 0.411458,12.6068 0.286458,12.5078 0.166664,12.4088 0.0859356,12.2865 0.0442689,12.1406 0.00260222,12 0,11.8412 0.0364689,11.6641 0.140636,11.1432 0.367198,10.6979 0.716156,10.3281 1.07032,9.95833 1.4922,9.66407 1.98178,9.44531 1.72657,9.3724 1.51303,9.26302 1.34116,9.1172 1.17449,8.96616 1.11199,8.78387 1.15366,8.57031 1.17448,8.48178 1.20313,8.38802 1.23959,8.28907 1.28126,8.19011 1.32292,8.10156 1.36459,8.02344 1.40626,7.94011 1.46615,7.84636 1.54428,7.7422 1.6224,7.63802 1.6849,7.55729 1.73178,7.5 1.77865,7.43751 1.85157,7.35418 1.95053,7.25 2.04949,7.14062 2.1172,7.06771 2.15366,7.03124 2.19011,6.98958 2.26042,6.91927 2.3646,6.82031 2.46876,6.71616 2.52864,6.65624 2.54429,6.64062 2.03386,5.84896 1.89845,4.84896 2.13803,3.64062 2.27864,2.94793 2.51302,2.33073 2.84116,1.78906 3.16927,1.24741 3.59636,0.815113 4.1224,0.492189 4.64844,0.164073 5.23178,1.11111e-5 5.8724,0 6.2422,1.11111e-5 6.55469,0.0520933 6.80991,0.156251 7.06511,0.260427 7.26302,0.39324 7.40364,0.554689 7.54427,0.710947 7.67187,0.91928 7.78647,1.17969 8.33333,0.445322 8.97396,0.0546978 9.70833,0.00781333 c 0.01563,1.111e-5 0.03125,1.111e-5 0.04689,0 0.01562,1.111e-5 0.03385,1.111e-5 0.05469,0 0.02602,1.111e-5 0.04427,1.111e-5 0.05469,0 L 9.54429,1.64063 c -0.02607,0 -0.06773,0 -0.125,0 -0.22398,0 -0.39585,0.00262 -0.51565,0.0078 C 8.78907,1.65365 8.65624,1.67708 8.50522,1.71874 8.35938,1.75521 8.23698,1.8151 8.13802,1.89843 8.19011,2.10156 8.21616,2.3724 8.21616,2.71093 8.22136,3.04427 8.19531,3.35416 8.13802,3.64062 8.0026,4.33853 7.77344,4.95573 7.45053,5.49218 7.13282,6.02864 6.71093,6.45833 6.18491,6.78124 5.66407,7.10416 5.07553,7.26562 4.41929,7.26562 L 3.43491,7.14842 C 3.41929,7.17447 3.38282,7.22136 3.32553,7.28904 3.27344,7.35156 3.22918,7.40364 3.19271,7.44531 3.16147,7.48698 3.1276,7.54167 3.09116,7.60936 3.05991,7.67187 3.03907,7.73176 3.02864,7.78904 c -0.02604,0.13543 0.01563,0.25 0.125,0.34376 0.1146,0.09376 0.28127,0.16407 0.5,0.21093 C 3.8724,8.3854 4.08593,8.41667 4.29429,8.43749 4.5026,8.45833 4.73438,8.47656 4.9896,8.49218 5.25,8.5026 5.42709,8.51562 5.52084,8.53124 5.81251,8.57291 6.06771,8.62238 6.28647,8.67967 6.5052,8.73176 6.72396,8.80989 6.94271,8.91404 7.16667,9.01822 7.34116,9.14322 7.46616,9.28904 7.59636,9.43489 7.69011,9.62238 7.7474,9.85156 7.80469,10.0807 7.80209,10.3437 7.73958,10.6406 7.66667,11.0052 7.53644,11.3307 7.34896,11.6172 7.16667,11.9036 6.95051,12.1406 6.70053,12.3281 6.45051,12.5156 6.16144,12.6693 5.83333,12.789 5.5052,12.914 5.16927,13.0026 4.82553,13.0547 4.48178,13.1068 4.1198,13.1328 3.73958,13.1328"
             id=" path3945"
             style="fill:#ffffff;fill-opacity:1;fill-rule:nonzero;stroke:none" />
        </g>
      </g>
    </g>
  </g>
</svg>
