<?xml version="1.0" standalone="no"?>
<!DOCTYPE svg PUBLIC "-//W3C//DTD SVG 20010904//EN"
 "http://www.w3.org/TR/2001/REC-SVG-20010904/DTD/svg10.dtd">
<svg version="1.0" xmlns="http://www.w3.org/2000/svg"
 width="481.000000pt" height="481.000000pt" viewBox="0 0 481.000000 481.000000"
 preserveAspectRatio="xMidYMid meet">
<metadata>
Created by potrace 1.11, written by Peter Selinger 2001-2013
</metadata>
<g transform="translate(0.000000,481.000000) scale(0.100000,-0.100000)"
fill="#000000" stroke="none">
<path d="M534 2940 l0 -1870 1870 0 1871 0 0 1868 0 1867 -1871 3 -1870 2 0
-1870z m3340 0 l0 -1465 -1469 0 -1470 0 -1 1460 c0 803 1 1463 3 1467 2 4
663 6 1470 5 l1466 -2 1 -1465z"/>
<path d="M1360 3667 c-158 -46 -237 -140 -280 -335 -18 -79 -19 -123 -17 -487
3 -380 4 -404 25 -474 28 -90 53 -140 94 -187 66 -75 158 -114 283 -119 190
-8 318 54 385 185 48 95 63 168 64 310 l1 84 -103 1 c-56 1 -106 -1 -111 -5
-5 -3 -10 -48 -12 -100 -6 -202 -66 -290 -196 -290 -94 0 -160 59 -189 170
-14 55 -17 123 -18 425 -1 379 4 473 30 543 27 73 98 111 197 106 120 -5 166
-67 175 -236 5 -97 5 -98 31 -99 31 -1 170 -1 189 0 19 1 8 143 -18 241 -31
114 -103 204 -196 246 -50 23 -76 27 -174 30 -75 3 -131 -1 -160 -9z"/>
<path d="M3159 3656 c-81 -31 -124 -61 -164 -116 -33 -44 -71 -131 -81 -185
-2 -11 -7 -31 -11 -45 -4 -14 -8 -198 -10 -410 -2 -345 -1 -394 16 -475 45
-216 131 -314 308 -350 73 -15 188 -12 256 6 124 32 212 131 252 284 20 77 32
265 17 274 -6 4 -57 6 -114 6 l-103 0 -2 -40 c-5 -115 -13 -194 -24 -225 -28
-83 -90 -130 -172 -130 -80 0 -132 31 -167 100 -39 78 -43 131 -43 530 0 478
8 530 91 585 65 43 199 39 244 -6 46 -46 66 -110 69 -226 1 -45 6 -73 13 -74
14 -1 176 -1 200 0 17 1 18 8 12 85 -19 241 -107 376 -278 422 -81 22 -240 17
-309 -10z"/>
<path d="M1989 3666 c-1 0 -2 -358 -3 -793 l-1 -793 70 -1 c197 -2 385 1 422
6 99 13 221 81 271 152 75 108 108 284 77 423 -22 99 -96 189 -196 236 -33 16
-59 31 -59 35 0 3 18 11 39 18 65 19 139 85 169 150 21 45 27 74 29 146 7 219
-85 344 -295 402 -43 12 -114 17 -289 18 -128 2 -234 2 -234 1z m478 -191
c120 -35 173 -163 129 -309 -40 -134 -118 -178 -316 -180 l-65 -1 -3 245 c-1
134 0 250 2 257 7 17 181 9 253 -12z m-11 -679 c93 -30 141 -102 151 -224 11
-142 -31 -247 -117 -289 -63 -31 -103 -37 -242 -34 l-38 1 0 278 c0 153 3 281
6 284 12 12 193 0 240 -16z"/>
<path d="M1554 721 c-21 -111 -18 -98 -27 -136 -4 -16 -9 -46 -12 -65 -3 -19
-8 -42 -10 -50 -2 -8 -7 -30 -10 -48 -3 -18 -12 -64 -20 -102 -38 -181 -38
-175 7 -176 47 -1 56 5 62 41 8 39 14 74 21 106 7 31 65 91 66 68 0 -8 2 -23
4 -34 3 -11 7 -49 10 -85 9 -97 9 -97 60 -96 25 0 45 3 45 6 0 3 -10 73 -21
157 l-22 152 54 63 c30 34 60 69 67 76 19 21 6 31 -39 27 -27 -2 -47 -11 -60
-27 -84 -96 -123 -138 -126 -135 -1 2 13 82 32 177 19 95 35 174 35 174 0 1
-22 2 -49 2 l-48 0 -19 -95z"/>
<path d="M2654 808 c-5 -8 -118 -558 -130 -634 -5 -30 -4 -30 40 -29 25 0 47
3 49 5 2 3 20 88 40 189 39 194 46 210 98 211 35 0 38 -4 27 -58 -4 -26 -10
-57 -13 -69 -2 -13 -11 -58 -19 -100 -21 -102 -25 -123 -31 -155 -5 -28 -5
-28 42 -24 51 3 54 8 67 91 3 16 12 63 20 102 9 40 18 85 21 100 3 16 7 39 10
53 17 80 17 107 -1 124 -23 24 -95 17 -136 -14 -16 -12 -31 -20 -33 -18 -2 1
7 54 19 116 13 61 23 113 22 113 -5 7 -88 4 -92 -3z"/>
<path d="M3221 806 c-7 -9 -124 -574 -134 -645 -1 -10 11 -15 41 -18 52 -3 49
-8 87 177 15 74 28 142 30 150 13 63 65 333 65 339 0 11 -80 8 -89 -3z"/>
<path d="M3391 775 c-5 -22 -21 -101 -35 -175 -14 -74 -28 -144 -30 -155 -35
-170 -56 -277 -56 -289 0 -12 44 -15 90 -7 3 1 6 9 7 19 1 10 9 54 18 98 9 43
19 89 21 102 9 48 13 71 38 192 34 167 36 179 43 220 l5 36 -45 0 c-45 0 -46
-1 -56 -41z"/>
<path d="M3049 793 c-20 -3 -28 -11 -33 -35 -12 -59 -9 -63 35 -61 41 1 58 13
60 43 0 8 2 23 4 33 2 9 -1 17 -5 17 -5 0 -14 2 -22 3 -7 2 -25 2 -39 0z"/>
<path d="M314 612 c-78 -49 -128 -193 -127 -359 1 -91 44 -124 143 -110 52 7
85 33 115 91 32 63 31 73 -4 78 -43 6 -68 -7 -76 -41 -12 -54 -61 -73 -81 -31
-13 27 0 131 31 237 27 93 95 109 95 23 0 -42 13 -50 65 -40 29 5 30 7 30 62
0 78 -22 100 -102 105 -45 3 -65 0 -89 -15z"/>
<path d="M595 620 c-2 -3 -8 -32 -14 -65 -6 -33 -14 -71 -17 -85 -18 -86 -64
-312 -64 -319 0 -8 86 -8 94 -1 2 3 7 19 10 35 55 316 69 348 149 347 37 -1
46 2 46 16 0 9 2 32 6 50 5 28 4 32 -15 32 -26 0 -57 -15 -89 -44 l-24 -21 7
28 c4 18 2 27 -6 28 -37 4 -80 4 -83 -1z"/>
<path d="M904 611 c-55 -34 -90 -104 -109 -221 -3 -19 -10 -51 -14 -70 -10
-47 -6 -111 8 -139 24 -45 130 -57 189 -21 56 35 84 98 113 260 20 114 17 149
-16 182 -33 33 -124 38 -171 9z m103 -77 c3 -9 -2 -60 -12 -113 -34 -184 -52
-219 -102 -200 -28 10 -29 24 -3 159 25 128 27 136 46 155 20 20 63 19 71 -1z"/>
<path d="M1254 612 c-43 -28 -69 -67 -93 -142 -33 -108 -44 -210 -29 -267 20
-76 154 -88 218 -21 27 28 63 105 57 121 -5 13 -67 14 -86 2 -6 -3 -11 -14
-11 -23 0 -52 -72 -85 -89 -41 -13 37 27 241 56 286 33 50 73 34 73 -28 0 -22
3 -39 8 -40 47 -5 76 -2 84 9 17 20 4 111 -20 135 -31 30 -126 35 -168 9z"/>
<path d="M1953 613 c-79 -44 -127 -177 -128 -351 0 -68 2 -75 28 -98 52 -45
164 -25 209 37 20 26 49 100 43 109 -6 10 -95 -2 -95 -12 0 -28 -33 -76 -56
-81 -34 -6 -46 21 -38 80 12 90 10 89 113 88 102 -2 97 -6 107 83 7 69 -7 125
-39 147 -29 20 -105 19 -144 -2z m88 -78 c1 -8 2 -26 2 -40 0 -62 0 -62 -48
-62 -25 0 -48 3 -50 7 -7 11 15 72 33 93 19 21 62 23 63 2z"/>
<path d="M2244 619 c-4 -6 -45 -196 -58 -269 -2 -14 -12 -58 -20 -98 -23 -108
-23 -111 22 -109 20 1 42 5 48 9 6 4 16 38 23 77 7 38 14 75 15 83 14 72 19
96 23 113 2 11 7 37 10 58 7 43 34 67 75 67 34 0 35 -16 13 -112 -8 -35 -17
-81 -20 -103 -4 -22 -13 -68 -21 -103 -20 -89 -20 -88 31 -88 47 0 50 3 61 63
3 16 18 91 34 168 40 199 41 207 24 232 -19 31 -63 30 -126 -2 l-49 -25 3 23
c3 20 -1 22 -40 22 -24 1 -45 -2 -48 -6z"/>
<path d="M2989 605 c-4 -11 -24 -105 -45 -210 -20 -104 -40 -202 -45 -217 -4
-16 -5 -29 -1 -29 13 -3 92 -6 92 -4 0 2 87 435 94 465 2 12 -7 16 -42 16 -35
0 -46 -5 -53 -21z"/>
<path d="M3743 614 c-58 -29 -85 -85 -119 -249 -2 -11 -7 -52 -11 -92 -6 -70
-5 -72 25 -102 30 -30 46 -35 107 -31 92 6 144 77 170 230 3 19 10 50 15 67
15 57 6 142 -18 165 -28 29 -123 36 -169 12z m95 -81 c11 -22 -32 -257 -53
-289 -18 -28 -51 -36 -70 -17 -14 14 -14 30 0 103 3 14 7 36 10 50 3 14 7 36
10 50 3 14 7 36 10 49 11 61 71 96 93 54z"/>
<path d="M4045 612 c-4 -11 -47 -215 -59 -286 -7 -37 -25 -134 -31 -162 -4
-20 -1 -22 40 -20 24 1 46 4 49 6 3 4 45 204 63 299 10 58 39 84 93 83 46 -1
45 -1 55 56 6 39 5 42 -15 42 -26 0 -57 -15 -88 -43 l-22 -21 6 30 c6 29 5 30
-40 30 -28 0 -47 -5 -51 -14z"/>
<path d="M4360 611 c-77 -41 -126 -165 -102 -257 12 -45 12 -47 -18 -80 -33
-38 -38 -65 -14 -85 13 -11 12 -15 -17 -37 -33 -27 -62 -82 -54 -104 12 -29
51 -42 140 -44 136 -4 203 28 226 106 21 68 -20 102 -133 114 -70 7 -88 14
-88 32 0 18 29 31 65 29 98 -6 185 100 185 226 0 35 2 38 33 41 29 3 32 6 35
41 2 26 -1 37 -10 37 -14 0 -59 -28 -69 -43 -4 -5 -18 3 -32 17 -32 32 -95 35
-147 7z m104 -115 c0 -87 -57 -161 -104 -136 -24 13 -28 43 -15 106 14 64 20
73 59 89 42 18 60 1 60 -59z m-44 -356 c27 -14 22 -41 -10 -58 -25 -13 -152
-13 -165 0 -9 9 22 65 41 76 18 10 103 -1 134 -18z"/>
<path d="M3440 221 c0 -10 -3 -32 -6 -49 l-6 -31 46 3 c25 2 48 5 50 7 2 2 7
23 11 47 l7 42 -51 0 c-43 0 -51 -3 -51 -19z"/>
</g>
</svg>
