<?xml version="1.0" encoding="UTF-8" standalone="no"?>
<!-- Created with Inkscape (http://www.inkscape.org/) -->

<svg
   xmlns:dc="http://purl.org/dc/elements/1.1/"
   xmlns:cc="http://creativecommons.org/ns#"
   xmlns:rdf="http://www.w3.org/1999/02/22-rdf-syntax-ns#"
   xmlns:svg="http://www.w3.org/2000/svg"
   xmlns="http://www.w3.org/2000/svg"
   xmlns:sodipodi="http://sodipodi.sourceforge.net/DTD/sodipodi-0.dtd"
   xmlns:inkscape="http://www.inkscape.org/namespaces/inkscape"
   width="942"
   height="152"
   id="svg3512"
   version="1.1"
   inkscape:version="0.91 r13725"
   sodipodi:docname="OutlineNameWhite.svg"
   inkscape:export-filename="/home/gareth/Dropbox/CBC/Branding/Logos/IconNameWhite.png"
   inkscape:export-xdpi="346.14999"
   inkscape:export-ydpi="346.14999">
  <defs
     id="defs3514" />
  <sodipodi:namedview
     id="base"
     pagecolor="#ffffff"
     bordercolor="#666666"
     borderopacity="1.0"
     inkscape:pageopacity="0.0"
     inkscape:pageshadow="2"
     inkscape:zoom="0.74100154"
     inkscape:cx="439.38141"
     inkscape:cy="42.845215"
     inkscape:document-units="px"
     inkscape:current-layer="layer1"
     showgrid="false"
     fit-margin-top="0"
     fit-margin-left="0"
     fit-margin-right="0"
     fit-margin-bottom="0"
     inkscape:window-width="1280"
     inkscape:window-height="755"
     inkscape:window-x="0"
     inkscape:window-y="1"
     inkscape:window-maximized="1"
     showguides="false" />
  <metadata
     id="metadata3517">
    <rdf:RDF>
      <cc:Work
         rdf:about="">
        <dc:format>image/svg+xml</dc:format>
        <dc:type
           rdf:resource="http://purl.org/dc/dcmitype/StillImage" />
        <dc:title />
      </cc:Work>
    </rdf:RDF>
  </metadata>
  <g
     inkscape:label="Layer 1"
     inkscape:groupmode="layer"
     id="layer1"
     transform="translate(-556.52004,-17.14777)">
    <path
       style="opacity:1;fill:#ffffff;fill-opacity:1;stroke:none;stroke-width:7.95675039;stroke-miterlimit:4;stroke-dasharray:none;stroke-opacity:1"
       d="m 0,48 0,152 142,0 10,0 790,0 0,-152 -790,0 -10,0 -142,0 z m 152.20117,9.914062 779.59766,0 0,132.169918 -779.59766,0 0,-132.169918 z m -124.814451,3.603516 5.205078,0 86.781253,0 5.20507,0 0,5.207031 0,86.781251 0,5.20703 -5.20507,0 -86.781253,0 -5.205078,0 0,-5.20703 0,-86.781251 0,-5.207031 z m 10.419922,10.423828 0,76.347654 76.351559,0 0,-76.347654 -76.351559,0 z M 52.375,90.78125 c 1.9209,4.2e-5 3.580056,0.284961 4.978516,0.853516 1.39847,0.56864 2.51387,1.405318 3.34375,2.511718 0.84512,1.106525 1.475625,2.391702 1.890625,3.851563 0.43025,1.45995 0.680962,3.163603 0.757812,5.115233 0.0154,0.29203 0.02334,0.74675 0.02344,1.36133 l -5.900391,0 0,-1.31445 c -0.0154,-0.81444 -0.0456,-1.50755 -0.0918,-2.07618 -0.0461,-0.58393 -0.130946,-1.18019 -0.253906,-1.794918 -0.12297,-0.61465 -0.306805,-1.123852 -0.552735,-1.523437 C 56.339763,97.350742 56.040645,96.974848 55.671875,96.636719 55.318475,96.283294 54.86571,96.028708 54.3125,95.875 53.75929,95.705999 53.11262,95.623097 52.375,95.623047 c -0.95276,5e-5 -1.775277,0.153636 -2.466797,0.460937 -0.67616,0.307388 -1.205684,0.707496 -1.589844,1.199219 -0.38419,0.476428 -0.683307,1.121089 -0.898437,1.935547 -0.1998,0.81449 -0.331098,1.61277 -0.392578,2.39648 -0.0615,0.7684 -0.0918,1.7222 -0.0918,2.85938 l 0,14.75391 c 0,0.98334 0.03833,1.87272 0.115234,2.67187 0.0922,0.79902 0.261933,1.59941 0.507813,2.39844 0.24586,0.7839 0.561112,1.44457 0.945312,1.98242 0.39954,0.53798 0.919013,0.9746 1.564453,1.3125 0.66078,0.32303 1.430711,0.48438 2.306641,0.48437 0.87595,0 1.629686,-0.16952 2.259766,-0.50781 0.63007,-0.3379 1.119256,-0.7664 1.472656,-1.28906 0.36876,-0.52234 0.653696,-1.19134 0.853516,-2.00586 0.21518,-0.81452 0.354535,-1.60659 0.416015,-2.375 0.0615,-0.76828 0.0918,-1.65779 0.0918,-2.67187 l 0,-1.47657 5.900391,0 0,1.47657 c -1.3e-4,2.13601 -0.192032,4.00925 -0.576172,5.62304 -0.36889,1.61342 -0.975193,3.04246 -1.820313,4.28711 -0.82988,1.2294 -1.967539,2.16706 -3.412109,2.8125 -1.4292,0.64531 -3.157057,0.96875 -5.185547,0.96875 -1.7365,0 -3.264347,-0.24642 -4.585938,-0.73828 -1.321569,-0.49174 -2.406753,-1.16866 -3.251953,-2.0293 -0.8452,-0.87587 -1.534425,-1.95703 -2.072265,-3.24804 -0.52249,-1.30625 -0.892292,-2.69862 -1.107422,-4.17383 -0.21515,-1.47533 -0.322266,-3.14248 -0.322266,-5.00195 l 0,-11.7793 c 0,-1.85948 0.107116,-3.52662 0.322266,-5.00195 0.21513,-1.475237 0.584932,-2.85752 1.107422,-4.148442 0.53784,-1.306181 1.227065,-2.391352 2.072265,-3.251953 0.8452,-0.860534 1.930384,-1.535544 3.251953,-2.027344 C 49.110653,91.027813 50.6385,90.781292 52.375,90.78125 Z m 47.560547,0 c 1.920893,4.2e-5 3.580063,0.284961 4.978513,0.853516 1.39847,0.56864 2.51386,1.405318 3.34375,2.511718 0.84512,1.106525 1.47366,2.391702 1.88867,3.851563 0.43024,1.45995 0.68293,3.163603 0.75977,5.115233 0.0154,0.29203 0.0233,0.74675 0.0234,1.36133 l -5.90039,0 0,-1.31445 c -0.0154,-0.81444 -0.0457,-1.50755 -0.0918,-2.07618 -0.0461,-0.58393 -0.13094,-1.18019 -0.25391,-1.794918 -0.12296,-0.61465 -0.30876,-1.123852 -0.55468,-1.523437 -0.23056,-0.414883 -0.52967,-0.790777 -0.89844,-1.128906 -0.35339,-0.353425 -0.80617,-0.608011 -1.35938,-0.761719 -0.55321,-0.169001 -1.19793,-0.251903 -1.935543,-0.251953 -0.95277,5e-5 -1.775267,0.153636 -2.466797,0.460937 -0.67617,0.307388 -1.207637,0.707496 -1.591797,1.199219 -0.38418,0.476428 -0.681344,1.121089 -0.896484,1.935547 -0.1998,0.81449 -0.331098,1.61277 -0.392578,2.39648 -0.0615,0.7684 -0.0918,1.7222 -0.0918,2.85938 l 0,14.75391 c 0,0.98334 0.03833,1.87272 0.115234,2.67187 0.0922,0.79902 0.259979,1.59941 0.50586,2.39844 0.245859,0.7839 0.559159,1.44457 0.943359,1.98242 0.39954,0.53798 0.922909,0.9746 1.568359,1.3125 0.66077,0.32303 1.430701,0.48438 2.306641,0.48437 0.875946,0 1.627746,-0.16952 2.257816,-0.50781 0.63006,-0.3379 1.12122,-0.7664 1.47461,-1.28906 0.36876,-0.52234 0.6537,-1.19134 0.85351,-2.00586 0.21519,-0.81452 0.35453,-1.60659 0.41602,-2.375 0.0615,-0.76828 0.0918,-1.65779 0.0918,-2.67187 l 0,-1.47657 5.90039,0 0,1.47657 c -1.3e-4,2.13601 -0.19204,4.00925 -0.57617,5.62304 -0.36889,1.61342 -0.9752,3.04246 -1.82032,4.28711 -0.82988,1.2294 -1.96753,2.16706 -3.41211,2.8125 -1.4292,0.64531 -3.15703,0.96875 -5.185546,0.96875 -1.73651,0 -3.266301,-0.24642 -4.587891,-0.73828 -1.32157,-0.49174 -2.4048,-1.16866 -3.25,-2.0293 -0.8452,-0.87587 -1.538302,-1.95703 -2.076172,-3.24804 -0.52247,-1.30625 -0.888375,-2.69862 -1.103515,-4.17383 -0.21514,-1.47533 -0.324219,-3.14248 -0.324219,-5.00195 l 0,-11.7793 c 0,-1.85948 0.109079,-3.52662 0.324219,-5.00195 0.21514,-1.475237 0.581045,-2.85752 1.103515,-4.148442 0.53787,-1.306181 1.230972,-2.391352 2.076172,-3.251953 0.8452,-0.860534 1.92843,-1.535544 3.25,-2.027344 1.32159,-0.491718 2.851381,-0.738239 4.587891,-0.738281 z m -34.845703,0.416016 8.853515,0 c 1.90552,4.1e-5 3.609195,0.200097 5.115235,0.599609 1.50592,0.399596 2.819616,1.003927 3.941406,1.818359 1.13716,0.814508 2.006149,1.891601 2.605469,3.228516 0.6147,1.337009 0.921745,2.897079 0.921875,4.67969 -1.3e-4,2.58178 -0.545659,4.54815 -1.636719,5.90039 -1.09118,1.337 -2.772545,2.3211 -5.046875,2.95117 2.45865,0.81452 4.30186,2.0129 5.53125,3.5957 1.22938,1.56756 1.845703,3.81067 1.845703,6.73047 0,3.6421 -1.062964,6.52376 -3.183594,8.64453 -2.10537,2.10529 -4.97708,3.15821 -8.61914,3.15821 l -10.328125,0 0,-41.306644 z m 5.90039,4.425781 0,13.277343 2.953125,0 c 4.9175,0 7.37503,-2.45933 7.375,-7.37695 0,-0.81443 -0.099,-1.527866 -0.298828,-2.142581 -0.19982,-0.630047 -0.438293,-1.153384 -0.714843,-1.568359 -0.27667,-0.414879 -0.699019,-0.760463 -1.267579,-1.037109 -0.55324,-0.291943 -1.062427,-0.516215 -1.523437,-0.669922 -0.46102,-0.153645 -1.119919,-0.260783 -1.980469,-0.322266 -0.84519,-0.07682 -1.552504,-0.123263 -2.121094,-0.138672 -0.56858,-0.01534 -1.376905,-0.02146 -2.421875,-0.02148 z m 0,17.703123 0,14.75195 2.953125,0 c 2.55094,0 4.41621,-0.58196 5.59961,-1.75 1.18315,-1.18329 1.77542,-3.06043 1.77539,-5.62695 0,-2.5664 -0.59224,-4.43364 -1.77539,-5.60156 -1.1834,-1.18329 -3.04867,-1.77331 -5.59961,-1.77344 l -2.953125,0 z m -16.574218,51.92188 2.498046,0 -1.921874,9.61718 4.050781,-4.61914 2.5,0 -3.671875,4.36524 1.171875,8.13086 -2.5,0 -0.66211,-6.04297 -1.582031,1.66992 -0.878906,4.37305 -2.5,0 3.496094,-17.49414 z m 28.001953,0 2.498047,0 -1.269532,6.3457 c 0.44259,-0.33842 0.797604,-0.59572 1.064454,-0.77148 0.27335,-0.18222 0.631628,-0.35161 1.074218,-0.50782 0.44909,-0.1627 0.908303,-0.24414 1.376953,-0.24414 0.53366,0 0.927791,0.19541 1.181641,0.58594 0.25381,0.39049 0.322228,0.86931 0.205078,1.43555 l -2.128906,10.65039 -2.5,0 1.875,-9.3711 c 0.0846,-0.42954 0.0944,-0.74549 0.0293,-0.94726 -0.0651,-0.20176 -0.276776,-0.30274 -0.634766,-0.30274 -0.50765,0 -1.103719,0.2443 -1.787109,0.73243 l -1.980469,9.88867 -2.5,0 3.496094,-17.49414 z m 14.691406,0 2.5,0 -3.496094,17.49414 -2.498047,0 3.494141,-17.49414 z m 4.726565,0 2.49804,0 -3.49414,17.49414 -2.499996,0 3.496096,-17.49414 z m -9.744143,0.625 2.5,0 -0.507813,2.5 -2.5,0 0.507813,-2.5 z m -68.390625,4.19726 c 1.31472,1e-5 2.187617,0.35504 2.617187,1.06446 0.42953,0.70945 0.524013,1.76145 0.283203,3.15429 l -0.06836,0.33203 -2.5,0 0.07813,-0.35156 c 0.0521,-0.31241 0.08466,-0.58599 0.09766,-0.82031 0.013,-0.23433 -1.22e-4,-0.46882 -0.03906,-0.70313 -0.0326,-0.23431 -0.123728,-0.41345 -0.273438,-0.53711 -0.14317,-0.13017 -0.336674,-0.1953 -0.583984,-0.19531 -0.24735,1e-5 -0.472078,0.075 -0.673828,0.22461 -0.19527,0.1432 -0.364613,0.35165 -0.507813,0.625 -0.14318,0.27336 -0.263718,0.55671 -0.361328,0.84961 -0.0977,0.28638 -0.185552,0.61863 -0.263672,0.99609 -0.18875,0.80708 -0.433051,2.02324 -0.732421,3.6504 -0.0586,0.35795 -0.09773,0.67391 -0.117188,0.94726 -0.013,0.26687 3.2e-5,0.52744 0.03906,0.78125 0.0391,0.24732 0.126992,0.4395 0.263672,0.57617 0.14319,0.13667 0.335362,0.20508 0.576172,0.20508 0.2213,0 0.419983,-0.0423 0.595703,-0.12695 0.18224,-0.0846 0.325558,-0.18885 0.429688,-0.3125 0.11064,-0.12366 0.211604,-0.28977 0.302734,-0.49805 0.0911,-0.20826 0.159528,-0.40044 0.205078,-0.57617 0.0521,-0.18222 0.102237,-0.41025 0.154297,-0.68359 l 0.06836,-0.30274 2.5,0 -0.06836,0.32227 c -0.14967,0.65738 -0.348393,1.24036 -0.595703,1.74804 -0.24081,0.50116 -0.543733,0.94087 -0.908203,1.31836 -0.36448,0.37749 -0.805502,0.66735 -1.326172,0.86914 -0.52069,0.1952 -1.110248,0.29102 -1.767578,0.29102 -0.60531,0 -1.110142,-0.0991 -1.513672,-0.30078 -0.40353,-0.20181 -0.706443,-0.46557 -0.908203,-0.79102 -0.20175,-0.32541 -0.335311,-0.73907 -0.400391,-1.24023 -0.0586,-0.50768 -0.0684,-1.01251 -0.0293,-1.51367 0.0391,-0.50766 0.117214,-1.0972 0.234374,-1.76758 0.0911,-0.54022 0.201862,-1.08218 0.332032,-1.62891 0.14319,-0.66388 0.296274,-1.25014 0.458984,-1.75781 0.16271,-0.50765 0.377671,-1.0125 0.644531,-1.51367 0.26684,-0.50766 0.563252,-0.92131 0.888672,-1.24024 0.33194,-0.32542 0.742309,-0.58924 1.230469,-0.79101 0.4881,-0.20177 1.033372,-0.30273 1.638672,-0.30274 z m 10.537109,0 c 0.0195,1e-5 0.149785,0.013 0.390625,0.0391 l -0.55664,2.76367 c -0.42307,-0.18225 -0.866035,-0.27343 -1.328125,-0.27344 -0.52067,1e-5 -0.973422,0.15635 -1.357422,0.46875 -0.3775,0.31242 -0.618527,0.72608 -0.722657,1.24023 l -1.6875,8.43555 -2.5,0 2.5,-12.49805 2.498047,0 -0.332031,1.66993 c 0.35144,-0.49464 0.807448,-0.92457 1.367188,-1.28907 0.55973,-0.37097 1.136245,-0.55663 1.728515,-0.55664 z m 4.96875,0 c 1.34073,1e-5 2.223455,0.39087 2.646485,1.17188 0.42304,0.78105 0.484936,1.908 0.185546,3.3789 l -0.742187,3.74805 c -0.29938,1.47096 -0.817294,2.59788 -1.552734,3.37891 -0.73548,0.78103 -1.774495,1.16992 -3.115235,1.16992 -1.34075,0 -2.221491,-0.38889 -2.644531,-1.16992 -0.42306,-0.78103 -0.484937,-1.90795 -0.185547,-3.37891 l 0.742188,-3.74805 c 0.29939,-1.4709 0.817264,-2.59785 1.552734,-3.3789 0.73547,-0.78101 1.772541,-1.17187 3.113281,-1.17188 z m 8.94336,0 c 1.31472,1e-5 2.185664,0.35504 2.615234,1.06446 0.42954,0.70945 0.524013,1.76145 0.283203,3.15429 l -0.06836,0.33203 -2.498047,0 0.07813,-0.35156 c 0.0521,-0.31241 0.08466,-0.58599 0.09766,-0.82031 0.013,-0.23433 -1.22e-4,-0.46882 -0.03906,-0.70313 -0.0326,-0.23431 -0.123738,-0.41345 -0.273438,-0.53711 -0.14317,-0.13017 -0.338627,-0.1953 -0.585937,-0.19531 -0.24735,1e-5 -0.472089,0.075 -0.673828,0.22461 -0.195271,0.1432 -0.364633,0.35165 -0.507813,0.625 -0.14321,0.27336 -0.263718,0.55671 -0.361328,0.84961 -0.0977,0.28638 -0.185582,0.61863 -0.263672,0.99609 -0.18874,0.80708 -0.433052,2.02324 -0.732422,3.6504 -0.0586,0.35795 -0.09774,0.67391 -0.117187,0.94726 -0.013,0.26687 2.2e-5,0.52744 0.03906,0.78125 0.0391,0.24732 0.126992,0.4395 0.263672,0.57617 0.14319,0.13667 0.335362,0.20508 0.576172,0.20508 0.22131,0 0.419953,-0.0423 0.595703,-0.12695 0.18222,-0.0846 0.325557,-0.18885 0.429687,-0.3125 0.11065,-0.12366 0.211605,-0.28977 0.302735,-0.49805 0.0911,-0.20826 0.159508,-0.40044 0.205078,-0.57617 0.0521,-0.18222 0.10415,-0.41025 0.15625,-0.68359 l 0.06836,-0.30274 2.498047,0 -0.06836,0.32227 c -0.14971,0.65738 -0.348383,1.24036 -0.595703,1.74804 -0.24081,0.50116 -0.54179,0.94087 -0.90625,1.31836 -0.36449,0.37749 -0.807455,0.66735 -1.328125,0.86914 -0.52068,0.1952 -1.110258,0.29102 -1.767578,0.29102 -0.60531,0 -1.110142,-0.0991 -1.513672,-0.30078 -0.40352,-0.20181 -0.706443,-0.46557 -0.908203,-0.79102 -0.20176,-0.32541 -0.333358,-0.73907 -0.398438,-1.24023 -0.0586,-0.50768 -0.0684,-1.01251 -0.0293,-1.51367 0.0391,-0.50766 0.115272,-1.0972 0.232422,-1.76758 0.0911,-0.54022 0.201851,-1.08218 0.332031,-1.62891 0.14318,-0.66388 0.296265,-1.25014 0.458985,-1.75781 0.16271,-0.50765 0.377671,-1.0125 0.644531,-1.51367 0.26684,-0.50766 0.563242,-0.92131 0.888672,-1.24024 0.33194,-0.32542 0.742309,-0.58924 1.230469,-0.79101 0.48813,-0.20177 1.035325,-0.30273 1.640625,-0.30274 z m 18.078125,0 c 0.53365,1e-5 0.989687,0.0717 1.367187,0.21485 0.3775,0.13669 0.673892,0.34839 0.888672,0.63476 0.2148,0.27988 0.374386,0.59255 0.478516,0.9375 0.11063,0.34496 0.16275,0.76512 0.15625,1.25977 -0.007,0.48813 -0.03906,0.9702 -0.09766,1.44531 -0.0586,0.47512 -0.149787,1.02038 -0.273437,1.63867 l -0.05859,0.29297 -5,0 -0.126953,0.625 c -0.013,0.0846 -0.03912,0.21818 -0.07813,0.40039 -0.0586,0.24083 -0.1107,0.49164 -0.15625,0.75195 -0.0391,0.25384 -0.07815,0.50464 -0.117187,0.75196 -0.0326,0.24731 -0.0423,0.48509 -0.0293,0.71289 0.013,0.22131 0.04229,0.41672 0.08789,0.58594 0.0521,0.1692 0.143258,0.30276 0.273438,0.40039 0.13668,0.0977 0.309278,0.14648 0.517578,0.14648 0.26031,0 0.485058,-0.0488 0.673828,-0.14648 0.19524,-0.10413 0.35158,-0.25721 0.46875,-0.45899 0.12364,-0.20174 0.221389,-0.40371 0.292969,-0.60547 0.0716,-0.20176 0.143224,-0.45581 0.214844,-0.76172 l 0.107421,-0.52734 2.480469,0 -0.107422,0.49805 c -0.32546,1.33426 -0.856357,2.34396 -1.591797,3.02734 -0.73549,0.6834 -1.72565,1.02344 -2.96875,1.02344 -0.6053,0 -1.108198,-0.10224 -1.511718,-0.31055 -0.40353,-0.20822 -0.703188,-0.47861 -0.898438,-0.81054 -0.19526,-0.33846 -0.322289,-0.7684 -0.380859,-1.28907 -0.0586,-0.52719 -0.0684,-1.05158 -0.0293,-1.57226 0.0456,-0.52719 0.133562,-1.13952 0.263672,-1.83594 0.0846,-0.5467 0.192085,-1.09194 0.322265,-1.63867 0.14969,-0.65084 0.309286,-1.22737 0.478516,-1.72852 0.16922,-0.50767 0.384181,-0.99947 0.644531,-1.47461 0.26684,-0.47511 0.564535,-0.86595 0.896485,-1.17187 0.33193,-0.30588 0.735827,-0.55016 1.210937,-0.73242 0.48165,-0.18874 1.015743,-0.2832 1.601563,-0.28321 z m 11.248046,0 c 0.533661,1e-5 0.927791,0.19543 1.181641,0.58594 0.25381,0.39051 0.322228,0.86931 0.205078,1.43555 l -2.128906,10.65039 -2.498047,0 1.873047,-9.3711 c 0.0846,-0.43606 0.0846,-0.75202 0,-0.94726 -0.0781,-0.20176 -0.304161,-0.30274 -0.681641,-0.30274 -0.2148,0 -0.439538,0.0456 -0.673828,0.13672 -0.22783,0.0846 -0.400408,0.16605 -0.517578,0.24414 -0.11717,0.0716 -0.289778,0.18887 -0.517578,0.35157 l -1.982422,9.88867 -2.498047,0 2.498047,-12.4961 2.5,0 -0.273437,1.34766 c 0.44259,-0.33843 0.797603,-0.59573 1.064453,-0.77148 0.27335,-0.18223 0.629665,-0.3516 1.072265,-0.50782 0.4491,-0.1627 0.908303,-0.24413 1.376953,-0.24414 z m 35.378908,0 c 1.34073,1e-5 2.22345,0.39087 2.64648,1.17188 0.42304,0.78105 0.48299,1.908 0.1836,3.3789 l -0.74024,3.74805 c -0.29938,1.47096 -0.81729,2.59788 -1.55273,3.37891 -0.73548,0.78103 -1.77449,1.16992 -3.11524,1.16992 -1.34075,0 -2.22148,-0.38889 -2.64453,-1.16992 -0.42305,-0.78103 -0.48494,-1.90795 -0.18554,-3.37891 l 0.74218,-3.74805 c 0.29939,-1.4709 0.81531,-2.59785 1.55078,-3.3789 0.73547,-0.78101 1.77446,-1.17187 3.11524,-1.17188 z m 11.04297,0 c 0.0195,1e-5 0.1498,0.013 0.39062,0.0391 l -0.55664,2.76367 c -0.42306,-0.18225 -0.866,-0.27343 -1.32812,-0.27344 -0.52066,1e-5 -0.97148,0.15635 -1.35547,0.46875 -0.3775,0.31242 -0.61853,0.72608 -0.72266,1.24023 l -1.68945,8.43555 -2.5,0 2.5,-12.49805 2.5,0 -0.33203,1.66993 c 0.35144,-0.49464 0.80745,-0.92457 1.36719,-1.28907 0.55972,-0.37097 1.13429,-0.55663 1.72656,-0.55664 z m 4.85937,0 0.002,0 c 0.46211,1e-5 0.85098,0.0651 1.16992,0.19531 0.31891,0.13018 0.56645,0.2963 0.74219,0.49805 0.17574,0.19527 0.3353,0.45584 0.47851,0.78125 0.68337,-0.9177 1.48466,-1.40625 2.40234,-1.46484 0.0195,2e-5 0.0391,2e-5 0.0586,0 0.0195,2e-5 0.0424,2e-5 0.0684,0 0.0325,2e-5 0.0554,2e-5 0.0684,0 l -0.40039,2.04101 -0.15625,0 c -0.27989,0 -0.49483,0.003 -0.64453,0.01 -0.14318,0.007 -0.30932,0.0358 -0.49805,0.0879 -0.18224,0.0456 -0.33533,0.12047 -0.45899,0.22461 0.0651,0.25384 0.0977,0.59258 0.0977,1.01562 0.006,0.41657 -0.0262,0.80415 -0.0977,1.16211 -0.16922,0.87215 -0.45585,1.64213 -0.85937,2.3125 -0.39702,0.67039 -0.9247,1.2078 -1.58203,1.61133 -0.65086,0.40353 -1.38502,0.60547 -2.20508,0.60547 l -1.23047,-0.14648 c -0.0195,0.0326 -0.0651,0.0913 -0.13672,0.17578 -0.0651,0.0781 -0.12045,0.14324 -0.16601,0.19531 -0.039,0.0521 -0.0814,0.1205 -0.12696,0.20508 -0.0391,0.0781 -0.065,0.15303 -0.0781,0.22461 -0.0326,0.16924 0.0196,0.31251 0.15625,0.42969 0.14321,0.11715 0.35167,0.20512 0.625,0.26367 0.27337,0.0521 0.54041,0.0912 0.80078,0.11718 0.26031,0.026 0.55021,0.0488 0.86914,0.0684 0.32541,0.013 0.5469,0.0293 0.66406,0.0488 0.36448,0.0521 0.68171,0.11395 0.95508,0.18555 0.27333,0.0651 0.54695,0.16282 0.82031,0.29297 0.27987,0.13018 0.49809,0.28652 0.6543,0.46875 0.1627,0.18226 0.27998,0.41672 0.35156,0.70312 0.0716,0.28634 0.0688,0.61531 -0.01,0.98633 -0.0911,0.45562 -0.254,0.86072 -0.48828,1.21875 -0.22779,0.3579 -0.49816,0.65436 -0.81055,0.88867 -0.31243,0.23431 -0.67398,0.42658 -1.08399,0.57617 -0.41005,0.15621 -0.82825,0.26694 -1.25781,0.33204 -0.42896,0.065 -0.88106,0.0975 -1.35547,0.0976 -0.3113,-2e-5 -0.56698,-0.003 -0.76172,-0.01 -0.18875,0 -0.45259,-0.006 -0.79101,-0.0195 -0.33845,-0.013 -0.61855,-0.0391 -0.83985,-0.0781 -0.21478,-0.0326 -0.46558,-0.0781 -0.75195,-0.13672 -0.27986,-0.0521 -0.50786,-0.12374 -0.68359,-0.21484 -0.16922,-0.0911 -0.33208,-0.19854 -0.48828,-0.32227 -0.1497,-0.12371 -0.25068,-0.27666 -0.30274,-0.45898 -0.0521,-0.1757 -0.057,-0.37439 -0.0117,-0.59571 0.13016,-0.65094 0.41355,-1.20584 0.84961,-1.66796 0.44258,-0.46208 0.97024,-0.83014 1.58203,-1.10352 -0.31891,-0.0911 -0.586,-0.22794 -0.80078,-0.41016 -0.20828,-0.18875 -0.28644,-0.41671 -0.23437,-0.68359 0.026,-0.11064 0.0618,-0.22791 0.10742,-0.35156 0.0521,-0.12366 0.10418,-0.23441 0.15625,-0.33203 0.0521,-0.10413 0.12697,-0.22141 0.22461,-0.35157 0.0977,-0.1302 0.17578,-0.23114 0.23437,-0.30273 0.0586,-0.0781 0.14977,-0.18232 0.27344,-0.3125 0.12366,-0.13669 0.20835,-0.22787 0.25391,-0.27344 0.0456,-0.0521 0.13348,-0.14 0.26367,-0.26367 0.13016,-0.13015 0.20505,-0.20508 0.22461,-0.22461 -0.63786,-0.98929 -0.80721,-2.23804 -0.50781,-3.74805 0.1757,-0.86561 0.46884,-1.63755 0.8789,-2.31445 0.41001,-0.67687 0.94422,-1.21756 1.60157,-1.62109 0.65736,-0.41004 1.38499,-0.61523 2.18554,-0.61524 z m -37.544919,0.17578 2.5,0 -2.5,12.4961 -2.498047,0 2.498047,-12.4961 z m 37.197269,1.5625 c -0.30587,1e-5 -0.58277,0.0847 -0.83008,0.25391 -0.24734,0.16271 -0.4558,0.39071 -0.625,0.68359 -0.16272,0.28638 -0.29953,0.58277 -0.41016,0.88868 -0.10415,0.2994 -0.19207,0.62838 -0.26367,0.98632 -0.35147,1.77037 -0.007,2.65433 1.03516,2.6543 1.04138,3e-5 1.73642,-0.88393 2.08789,-2.6543 0.0716,-0.35794 0.11393,-0.68692 0.12695,-0.98632 0.0195,-0.30591 0.003,-0.6023 -0.0488,-0.88868 -0.0521,-0.29288 -0.16935,-0.52088 -0.35156,-0.68359 -0.18227,-0.16921 -0.42131,-0.2539 -0.7207,-0.25391 z m -89.613285,0.3125 c -0.17572,0 -0.338581,0.026 -0.488281,0.0781 -0.14319,0.0521 -0.266964,0.11722 -0.371094,0.19531 -0.0977,0.0716 -0.192103,0.18234 -0.283203,0.33203 -0.0846,0.14321 -0.156264,0.27023 -0.214844,0.38086 -0.0521,0.11066 -0.107445,0.27027 -0.166015,0.47852 -0.0521,0.2083 -0.09124,0.37438 -0.117188,0.49804 -0.0261,0.11716 -0.06513,0.29632 -0.117188,0.53711 l -0.740234,3.74805 c -0.0521,0.24083 -0.08793,0.42323 -0.107422,0.54688 -0.0195,0.11715 -0.04563,0.28 -0.07813,0.48828 -0.0261,0.20826 -0.0358,0.36786 -0.0293,0.47851 0.013,0.11066 0.03259,0.24092 0.05859,0.39063 0.0326,0.14317 0.08465,0.25394 0.15625,0.33203 0.0781,0.0716 0.173846,0.1335 0.291016,0.18555 0.12365,0.0521 0.273499,0.0781 0.449218,0.0781 0.175741,0 0.335306,-0.026 0.478516,-0.0781 0.14966,-0.0521 0.273464,-0.11396 0.371094,-0.18555 0.10415,-0.0781 0.198603,-0.18886 0.283203,-0.33203 0.0911,-0.14971 0.162744,-0.27997 0.214844,-0.39063 0.0586,-0.11065 0.113935,-0.27025 0.166015,-0.47851 0.0586,-0.20828 0.100914,-0.37113 0.126954,-0.48828 0.026,-0.12365 0.06513,-0.30605 0.117187,-0.54688 l 0.742187,-3.74805 c 0.0521,-0.24079 0.08793,-0.41995 0.107422,-0.53711 0.0195,-0.12366 0.04236,-0.28974 0.06836,-0.49804 0.0326,-0.20825 0.0423,-0.36786 0.0293,-0.47852 -0.007,-0.11063 -0.02599,-0.23765 -0.05859,-0.38086 -0.026,-0.14969 -0.07814,-0.26042 -0.15625,-0.33203 -0.0716,-0.0781 -0.169349,-0.14324 -0.292969,-0.19531 -0.11717,-0.0521 -0.263733,-0.0781 -0.439453,-0.0781 z m 27.021484,0 c -0.25386,0 -0.481783,0.0685 -0.683593,0.20508 -0.20177,0.13669 -0.371123,0.33539 -0.507813,0.59571 -0.13015,0.25384 -0.237685,0.50464 -0.322265,0.75195 -0.0781,0.24731 -0.15302,0.54371 -0.22461,0.88867 l -0.136719,0.68359 2.480469,0 0.146484,-0.75195 c 0.0586,-0.33195 0.09444,-0.62182 0.107422,-0.86914 0.0195,-0.24733 0.01297,-0.49485 -0.01953,-0.74219 -0.0261,-0.24732 -0.110716,-0.43623 -0.253906,-0.5664 -0.1432,-0.13017 -0.338638,-0.19532 -0.585938,-0.19532 z m 46.626951,0 c -0.17572,0 -0.33857,0.026 -0.48828,0.0781 -0.14319,0.0521 -0.26696,0.11722 -0.37109,0.19531 -0.0977,0.0716 -0.19213,0.18234 -0.28321,0.33203 -0.0847,0.14321 -0.15627,0.27023 -0.21484,0.38086 -0.0521,0.11066 -0.10744,0.27027 -0.16601,0.47852 -0.0521,0.2083 -0.0912,0.37438 -0.11719,0.49804 -0.0261,0.11716 -0.0651,0.29632 -0.11719,0.53711 l -0.74219,3.74805 c -0.0521,0.24083 -0.0879,0.42323 -0.10742,0.54688 -0.0195,0.11715 -0.0456,0.28 -0.0781,0.48828 -0.0261,0.20826 -0.0358,0.36786 -0.0293,0.47851 0.013,0.11066 0.0326,0.24092 0.0586,0.39063 0.0326,0.14317 0.0846,0.25394 0.15625,0.33203 0.0781,0.0716 0.1758,0.1335 0.29297,0.18555 0.12365,0.0521 0.2735,0.0781 0.44922,0.0781 0.17574,0 0.33531,-0.026 0.47852,-0.0781 0.14966,-0.0521 0.27346,-0.11396 0.37109,-0.18555 0.10415,-0.0781 0.1986,-0.18886 0.2832,-0.33203 0.0911,-0.14971 0.16274,-0.27997 0.21485,-0.39063 0.0586,-0.11065 0.11394,-0.27025 0.16601,-0.47851 0.0586,-0.20828 0.10091,-0.37113 0.12695,-0.48828 0.026,-0.12365 0.0651,-0.30605 0.11719,-0.54688 l 0.74219,-3.74805 c 0.0521,-0.24079 0.0879,-0.41995 0.10742,-0.53711 0.0195,-0.12366 0.0423,-0.28974 0.0684,-0.49804 0.0325,-0.20825 0.0423,-0.36786 0.0293,-0.47852 -0.007,-0.11063 -0.026,-0.23765 -0.0586,-0.38086 -0.0261,-0.14969 -0.0781,-0.26042 -0.15625,-0.33203 -0.0716,-0.0781 -0.16934,-0.14324 -0.29296,-0.19531 -0.11717,-0.0521 -0.26373,-0.0781 -0.43946,-0.0781 z m -9.41015,8.12305 2.5,0 -0.49805,2.49805 -2.5,0 0.49805,-2.49805 z m 22.04492,1.94141 0,0.002 c -0.28638,0.18221 -0.55347,0.44416 -0.80078,0.78906 -0.24735,0.34503 -0.41018,0.70647 -0.48828,1.08399 -0.0195,0.1041 -0.003,0.19219 0.0488,0.26367 0.0586,0.0782 0.15304,0.13667 0.28321,0.17578 0.13666,0.039 0.27152,0.0717 0.4082,0.0977 0.14318,0.026 0.31581,0.0421 0.51758,0.0488 0.20175,0.006 0.37632,0.01 0.51953,0.01 0.14318,0 0.30735,-0.003 0.49609,-0.01 0.19529,-0.007 0.33074,-0.01 0.40235,-0.01 0.17572,-1.2e-4 0.33533,-0.003 0.47851,-0.01 0.14317,-0.007 0.30606,-0.0196 0.48828,-0.0391 0.18874,-0.0195 0.3516,-0.0522 0.48829,-0.0977 0.14318,-0.0391 0.27998,-0.0914 0.41015,-0.15625 0.13668,-0.0651 0.24742,-0.15295 0.33203,-0.26367 0.0911,-0.10409 0.14778,-0.22474 0.17383,-0.36133 0.14319,-0.69643 -0.43791,-1.12311 -1.74609,-1.27929 l -2.01172,-0.24414 z"
       transform="translate(556.52004,-30.85223)"
       id="rect4288"
       inkscape:connector-curvature="0" />
    <g
       style="font-style:italic;font-weight:normal;font-size:40px;line-height:125%;font-family:Sans;-inkscape-font-specification:'Sans Italic';letter-spacing:0px;word-spacing:0px;fill:#ffffff;fill-opacity:1;stroke:none;stroke-width:1px;stroke-linecap:butt;stroke-linejoin:miter;stroke-opacity:1"
       id="text4833">
      <path
         d="m 753.97119,122.13378 q -3.8623,0 -6.80176,-1.09375 -2.93945,-1.09375 -4.81933,-3.00781 -1.87989,-1.94824 -3.07617,-4.81934 -1.16211,-2.90527 -1.64063,-6.18652 -0.47851,-3.28125 -0.47851,-7.416993 l 0,-17.46582 q 0,-4.135742 0.47851,-7.416992 0.47852,-3.28125 1.64063,-6.152344 1.19628,-2.905273 3.07617,-4.819336 1.87988,-1.914062 4.81933,-3.007812 2.93946,-1.09375 6.80176,-1.09375 4.27246,0 7.38281,1.264648 3.11036,1.264649 4.95606,3.725586 1.87988,2.460938 2.80273,5.708008 0.95703,3.24707 1.12793,7.58789 0.0342,0.649415 0.0342,2.016602 l -8.75,0 0,-1.948242 q -0.0342,-1.811524 -0.13672,-3.076172 -0.10254,-1.298828 -0.37597,-2.666016 -0.27344,-1.367187 -0.82032,-2.255859 -0.51269,-0.922852 -1.333,-1.674805 -0.78614,-0.786133 -2.0166,-1.127929 -1.23047,-0.375977 -2.8711,-0.375977 -2.11914,0 -3.65723,0.683594 -1.5039,0.683594 -2.35839,1.777344 -0.8545,1.05957 -1.33301,2.871093 -0.44434,1.811524 -0.58106,3.554688 -0.13671,1.708984 -0.13671,4.238281 l 0,21.875003 q 0,2.1875 0.17089,3.96484 0.20508,1.77734 0.75196,3.55469 0.54687,1.74316 1.40136,2.93945 0.88868,1.19629 2.32422,1.94824 1.46973,0.71778 3.41797,0.71778 1.94824,0 3.34961,-0.75196 1.40137,-0.75195 2.1875,-1.91406 0.82031,-1.16211 1.26465,-2.97363 0.47851,-1.81152 0.61523,-3.52051 0.13672,-1.70898 0.13672,-3.96484 l 0,-2.187503 8.75,0 0,2.187503 q 0,4.75097 -0.85449,8.33984 -0.82031,3.58887 -2.7002,6.35742 -1.8457,2.73438 -5.05859,4.16992 -3.17871,1.43555 -7.69043,1.43555 z"
         style="font-style:normal;font-variant:normal;font-weight:normal;font-stretch:normal;font-size:70px;font-family:Oswald;-inkscape-font-specification:Oswald;fill:#ffffff;fill-opacity:1"
         id="path4137" />
      <path
         d="m 775.74365,121.51855 0,-43.750003 8.75,0 0,5.844727 q 1.33301,-2.597657 3.86231,-4.511719 2.56347,-1.948242 5.67383,-1.948242 0.10253,0 1.40136,0.136718 l 0,9.672852 q -2.42676,-0.957031 -4.85351,-0.957031 -2.73438,0 -4.40918,1.640625 -1.67481,1.640625 -1.67481,4.34082 l 0,29.531253 -8.75,0 z"
         style="font-style:normal;font-variant:normal;font-weight:normal;font-stretch:normal;font-size:70px;font-family:Oswald;-inkscape-font-specification:Oswald;fill:#ffffff;fill-opacity:1"
         id="path4139" />
      <path
         d="m 821.51025,118.03222 q -3.04199,4.10156 -10.083,4.10156 -7.04102,0 -10.08301,-4.10156 -3.04199,-4.10156 -3.04199,-11.82617 l 0,-13.125003 q 0,-7.724609 3.04199,-11.826172 3.04199,-4.101562 10.08301,-4.101562 7.04101,0 10.083,4.101562 3.042,4.101563 3.042,11.826172 l 0,13.125003 q 0,7.72461 -3.042,11.82617 z m -11.72363,-3.34961 q 0.71777,0.27344 1.64063,0.27344 0.92285,0 1.60644,-0.27344 0.71777,-0.27344 1.16211,-0.64941 0.47852,-0.41016 0.78613,-1.16211 0.30762,-0.78614 0.47852,-1.36719 0.1709,-0.58106 0.23926,-1.67481 0.0684,-1.09375 0.0684,-1.70898 0.0342,-0.64941 0.0342,-1.91406 l 0,-13.125003 q 0,-1.264648 -0.0342,-1.879883 0,-0.649414 -0.0684,-1.743164 -0.0684,-1.09375 -0.23926,-1.674805 -0.1709,-0.581054 -0.47852,-1.333007 -0.30761,-0.786133 -0.78613,-1.16211 -0.44434,-0.410156 -1.16211,-0.683593 -0.68359,-0.273438 -1.60644,-0.273438 -0.92286,0 -1.64063,0.273438 -0.68359,0.273437 -1.16211,0.683593 -0.44433,0.375977 -0.75195,1.16211 -0.30762,0.751953 -0.47852,1.333007 -0.1709,0.581055 -0.23925,1.674805 -0.0684,1.09375 -0.10254,1.743164 0,0.615235 0,1.879883 l 0,13.125003 q 0,1.26465 0,1.91406 0.0342,0.61523 0.10254,1.70898 0.0683,1.09375 0.23925,1.67481 0.1709,0.58105 0.47852,1.36719 0.30762,0.75195 0.75195,1.16211 0.47852,0.37597 1.16211,0.64941 z"
         style="font-style:normal;font-variant:normal;font-weight:normal;font-stretch:normal;font-size:70px;font-family:Oswald;-inkscape-font-specification:Oswald;fill:#ffffff;fill-opacity:1"
         id="path4141" />
      <path
         d="m 842.59912,122.13378 q -3.17871,0 -5.53711,-1.05957 -2.32422,-1.05957 -3.72558,-2.76855 -1.40137,-1.70899 -2.25586,-4.34082 -0.8545,-2.66602 -1.19629,-5.29786 -0.30762,-2.66601 -0.37598,-6.18652 -0.10254,-2.836913 0,-5.708007 0.0684,-3.486328 0.37598,-6.152343 0.34179,-2.666016 1.19629,-5.297852 0.88867,-2.666016 2.25586,-4.34082 1.40136,-1.708985 3.72558,-2.768555 2.3584,-1.05957 5.53711,-1.05957 6.9043,0 9.91211,3.725586 3.00781,3.725586 3.21289,11.040039 l 0,1.162109 -8.75,0 0,-1.230469 q -0.0342,-1.640625 -0.23926,-2.871093 -0.1709,-1.230469 -0.61523,-2.460938 -0.41016,-1.230469 -1.33301,-1.879883 -0.88867,-0.683594 -2.1875,-0.683594 -1.29883,0 -2.1875,0.786133 -0.88867,0.751953 -1.36719,2.1875 -0.44433,1.435547 -0.64941,2.973633 -0.20508,1.503906 -0.23926,3.486328 -0.13672,4.238281 0,12.783206 0.0684,1.87988 0.27344,3.31543 0.20508,1.40136 0.64941,2.73437 0.47852,1.29883 1.36719,2.0166 0.88867,0.71778 2.15332,0.71778 1.16211,0 1.98242,-0.44434 0.8545,-0.44433 1.29883,-1.09375 0.44434,-0.64941 0.68359,-1.74316 0.27344,-1.09375 0.3418,-2.0166 0.0684,-0.95704 0.0684,-2.39258 l 0,-1.05957 8.75,0 0,1.12793 q -0.10254,3.45215 -0.85449,6.11816 -0.75195,2.63184 -2.29004,4.61426 -1.50391,1.98242 -4.0332,3.04199 -2.49512,1.02539 -5.94727,1.02539 z"
         style="font-style:normal;font-variant:normal;font-weight:normal;font-stretch:normal;font-size:70px;font-family:Oswald;-inkscape-font-specification:Oswald;fill:#ffffff;fill-opacity:1"
         id="path4143" />
      <path
         d="m 861.19287,121.51855 0,-61.250003 8.75,0 0,33.666992 10.9375,-16.166992 8.75,0 -9.80957,15.27832 9.80957,28.471683 -8.75,0 -6.5625,-21.15723 -4.375,5.84473 0,15.3125 -8.75,0 z"
         style="font-style:normal;font-variant:normal;font-weight:normal;font-stretch:normal;font-size:70px;font-family:Oswald;-inkscape-font-specification:Oswald;fill:#ffffff;fill-opacity:1"
         id="path4145" />
      <path
         d="m 905.96826,122.13378 q -3.17871,0 -5.53711,-1.09375 -2.32422,-1.09375 -3.72558,-2.83691 -1.36719,-1.77735 -2.22168,-4.51172 -0.8545,-2.76856 -1.19629,-5.50293 -0.30762,-2.76856 -0.37598,-6.42578 -0.10254,-2.871096 0,-5.74219 0.10254,-3.417969 0.44434,-6.049805 0.37597,-2.666015 1.26465,-5.161132 0.88867,-2.495118 2.29003,-4.101563 1.43555,-1.606445 3.72559,-2.563476 2.32422,-0.991211 5.40039,-0.991211 2.80274,0 4.92188,0.751953 2.15332,0.717773 3.55468,2.221679 1.43555,1.469727 2.3584,3.28125 0.95703,1.811524 1.43555,4.40918 0.47851,2.563477 0.64941,5.058594 0.20508,2.495117 0.20508,5.742187 l 0,1.025391 -17.5,0 0,2.187503 q 0,0.44433 0,1.40136 -0.0684,1.26465 -0.0342,2.63184 0.0684,1.33301 0.13672,2.63184 0.0684,1.29882 0.37598,2.49511 0.30761,1.16211 0.75195,2.05078 0.44434,0.88868 1.23047,1.40137 0.82031,0.5127 1.91406,0.5127 1.36719,0 2.25586,-0.5127 0.88867,-0.54687 1.29883,-1.60644 0.44433,-1.05957 0.61523,-2.11914 0.1709,-1.05957 0.20508,-2.66602 l 0,-1.8457 8.68164,0 0,1.74316 q -0.30762,7.00684 -3.45215,10.5957 -3.14453,3.58887 -9.67285,3.58887 z m -4.30664,-26.865233 8.68164,0 0,-2.631836 q -0.0342,-1.743164 -0.20508,-3.041992 -0.17089,-1.298828 -0.61523,-2.597656 -0.41016,-1.298828 -1.29883,-1.982422 -0.88867,-0.683594 -2.1875,-0.683594 -1.33301,0 -2.25586,0.717773 -0.88867,0.717774 -1.33301,2.084961 -0.41015,1.333008 -0.58105,2.631836 -0.1709,1.298828 -0.20508,3.110352 l 0,2.392578 z"
         style="font-style:normal;font-variant:normal;font-weight:normal;font-stretch:normal;font-size:70px;font-family:Oswald;-inkscape-font-specification:Oswald;fill:#ffffff;fill-opacity:1"
         id="path4147" />
      <path
         d="m 925.45068,121.51855 0,-43.750003 8.75,0 0,4.716797 q 1.94825,-1.777344 3.17871,-2.700195 1.23047,-0.957032 3.38379,-1.777344 2.1875,-0.854492 4.64844,-0.854492 2.80274,0 4.5459,2.050781 1.74316,2.050781 1.74316,5.024414 l 0,37.290042 -8.75,0 0,-32.812503 q 0,-2.290039 -0.64941,-3.31543 -0.64941,-1.05957 -2.63184,-1.05957 -1.12793,0 -2.25586,0.478516 -1.09375,0.444336 -1.64062,0.854492 -0.54688,0.375976 -1.57227,1.230469 l 0,34.624026 -8.75,0 z"
         style="font-style:normal;font-variant:normal;font-weight:normal;font-stretch:normal;font-size:70px;font-family:Oswald;-inkscape-font-specification:Oswald;fill:#ffffff;fill-opacity:1"
         id="path4149" />
      <path
         d="m 959.35693,121.51855 0,-61.250003 8.75,0 0,22.216797 q 1.94825,-1.777344 3.17871,-2.700195 1.23047,-0.957032 3.38379,-1.777344 2.1875,-0.854492 4.64844,-0.854492 2.80274,0 4.5459,2.050781 1.74316,2.050781 1.74316,5.024414 l 0,37.290042 -8.75,0 0,-32.812503 q 0,-2.255859 -0.58105,-3.31543 -0.54688,-1.05957 -2.42676,-1.05957 -2.66601,0 -5.74219,2.563477 l 0,34.624026 -8.75,0 z"
         style="font-style:normal;font-variant:normal;font-weight:normal;font-stretch:normal;font-size:70px;font-family:Oswald;-inkscape-font-specification:Oswald;fill:#ffffff;fill-opacity:1"
         id="path4151" />
      <path
         d="m 993.63916,71.206047 0,-8.75 8.75004,0 0,8.75 -8.75004,0 z m 0,50.312503 0,-43.750003 8.75004,0 0,43.750003 -8.75004,0 z"
         style="font-style:normal;font-variant:normal;font-weight:normal;font-stretch:normal;font-size:70px;font-family:Oswald;-inkscape-font-specification:Oswald;fill:#ffffff;fill-opacity:1"
         id="path4153" />
      <path
         d="m 1010.9341,121.51855 0,-61.250003 8.75,0 0,61.250003 -8.75,0 z"
         style="font-style:normal;font-variant:normal;font-weight:normal;font-stretch:normal;font-size:70px;font-family:Oswald;-inkscape-font-specification:Oswald;fill:#ffffff;fill-opacity:1"
         id="path4155" />
      <path
         d="m 1027.4771,121.51855 0,-61.250003 8.75,0 0,61.250003 -8.75,0 z"
         style="font-style:normal;font-variant:normal;font-weight:normal;font-stretch:normal;font-size:70px;font-family:Oswald;-inkscape-font-specification:Oswald;fill:#ffffff;fill-opacity:1"
         id="path4157" />
      <path
         d="m 1067.3306,86.518547 4.375,0 q 10.9375,0 10.9375,-10.9375 0,-1.811523 -0.4444,-3.178711 -0.4443,-1.401367 -1.0595,-2.324219 -0.6153,-0.922851 -1.8799,-1.538086 -1.2305,-0.649414 -2.2559,-0.991211 -1.0254,-0.341796 -2.9394,-0.478515 -1.8799,-0.170899 -3.1446,-0.205078 -1.2646,-0.03418 -3.5888,-0.03418 l 0,19.6875 z m 0,28.437503 4.375,0 q 5.6738,0 8.3056,-2.59766 2.6319,-2.63184 2.6319,-8.33984 0,-5.708011 -2.6319,-8.305667 -2.6318,-2.631836 -8.3056,-2.631836 l -4.375,0 0,21.875003 z m -8.75,6.5625 0,-61.250003 13.125,0 q 4.2382,0 7.5879,0.888672 3.3496,0.888672 5.8447,2.700195 2.5293,1.811524 3.8623,4.785156 1.3672,2.973633 1.3672,6.938477 0,5.742188 -2.4268,8.75 -2.4267,2.973633 -7.4853,4.375 5.4687,1.811523 8.2031,5.332031 2.7344,3.486328 2.7344,9.980472 0,8.10058 -4.7168,12.81738 -4.6826,4.68262 -12.7832,4.68262 l -15.3125,0 z"
         style="font-style:normal;font-variant:normal;font-weight:normal;font-stretch:normal;font-size:70px;font-family:Oswald;-inkscape-font-specification:Oswald;fill:#ffffff;fill-opacity:1"
         id="path4159" />
      <path
         d="m 1109.4399,114.95605 q 0.9229,0 1.7774,-0.54688 0.8887,-0.54687 1.333,-1.05957 0.4443,-0.51269 1.0937,-1.36719 0.1026,-0.17089 0.1709,-0.23925 l 0,-12.099613 q -0.5468,0.375973 -1.8115,1.162113 -1.2646,0.78613 -2.0166,1.29882 -0.7519,0.47852 -1.8115,1.36719 -1.0596,0.85449 -1.6406,1.67481 -0.5811,0.78613 -1.0254,1.94824 -0.4444,1.16211 -0.4444,2.42676 0,5.43457 4.375,5.43457 z m -4.375,7.17773 q -3.6572,0 -6.2207,-3.14453 -2.5293,-3.17871 -2.5293,-7.14355 0,-3.17872 1.0596,-5.77637 1.0938,-2.59766 2.2901,-4.13574 1.1962,-1.57227 3.999,-3.212895 2.8027,-1.674804 4.2383,-2.290039 1.4355,-0.615234 4.9902,-2.016601 0.6152,-0.239258 0.9228,-0.375977 l 0,-3.144531 q 0,-3.31543 -0.9228,-5.126953 -0.9229,-1.845703 -3.4522,-1.845703 -2.2558,0 -3.247,1.572265 -0.9571,1.538086 -1.0938,4.272461 -0.034,0.375977 -0.034,1.12793 l -8.75,0 q 0.068,-6.289062 3.5205,-10.014648 3.4522,-3.725586 9.6045,-3.725586 6.1182,0 9.6045,3.793945 3.5205,3.759766 3.5205,9.946289 l 0,19.687503 q 0,6.83593 1.128,10.9375 l -8.7158,0 -1.1622,-6.5625 q -0.6836,1.36718 -1.1279,2.11914 -0.4101,0.75195 -1.2305,1.87988 -0.8203,1.09375 -1.6406,1.70898 -0.8203,0.58106 -2.0508,1.0254 -1.2304,0.44433 -2.7002,0.44433 z"
         style="font-style:normal;font-variant:normal;font-weight:normal;font-stretch:normal;font-size:70px;font-family:Oswald;-inkscape-font-specification:Oswald;fill:#ffffff;fill-opacity:1"
         id="path4161" />
      <path
         d="m 1145.4312,114.95605 q 1.4013,0 2.3242,-1.02539 0.957,-1.02539 1.3672,-2.90528 0.4443,-1.91406 0.581,-3.75976 0.1709,-1.87989 0.1709,-4.375 l -0.068,-5.77637 q 0,-1.538086 -0.034,-2.460937 0,-0.957032 -0.1026,-2.495118 -0.1025,-1.572265 -0.3076,-2.563476 -0.1709,-0.991211 -0.5469,-2.1875 -0.3759,-1.196289 -0.9228,-1.879883 -0.5127,-0.683594 -1.3672,-1.162109 -0.8203,-0.478516 -1.8799,-0.478516 -0.5127,0 -0.9912,0.06836 -0.4443,0.06836 -0.957,0.239258 -0.4785,0.136719 -0.8203,0.273438 -0.3077,0.102539 -0.8203,0.375976 -0.5127,0.273438 -0.752,0.410157 -0.2051,0.102539 -0.752,0.444336 -0.5468,0.341796 -0.6835,0.410156 l 0,27.070309 q 3.0078,1.77735 6.5625,1.77735 z m -15.3125,19.6875 0,-56.875003 8.75,0 0,4.375 q 1.0595,-1.12793 1.4697,-1.538086 0.4101,-0.410156 1.4013,-1.264648 1.0254,-0.854493 1.7432,-1.196289 0.752,-0.341797 1.8799,-0.649414 1.1621,-0.341797 2.3926,-0.341797 2.2217,0 3.9648,0.820312 1.7432,0.786133 2.8711,1.914063 1.1279,1.127929 1.9141,3.24707 0.7861,2.084961 1.1621,3.793945 0.4101,1.708985 0.6152,4.614258 0.2051,2.905274 0.2393,4.716797 0.034,1.777344 0.034,4.921872 l 0,0.64942 q 0,2.87109 -0.3077,5.53711 -0.2734,2.66601 -1.0595,5.43457 -0.752,2.73437 -1.9483,4.75097 -1.1621,2.0166 -3.1445,3.31543 -1.9483,1.26465 -4.4775,1.26465 -4.4434,0 -8.75,-4.5459 l 0,17.05567 -8.75,0 z"
         style="font-style:normal;font-variant:normal;font-weight:normal;font-stretch:normal;font-size:70px;font-family:Oswald;-inkscape-font-specification:Oswald;fill:#ffffff;fill-opacity:1"
         id="path4163" />
      <path
         d="m 1177.7993,122.13378 q -5.1611,0 -7.5195,-2.63183 -2.3242,-2.63184 -2.3926,-7.96387 l 0,-27.207033 -4.375,0 0,-6.5625 4.375,0 0,-15.3125 8.75,0 0,15.3125 6.5625,0 0,6.5625 -6.5625,0 0,25.532223 q 0,2.63184 0.7178,3.86231 0.7178,1.23047 2.9053,1.23047 0.957,0 2.9394,-0.3418 l 0,7.10938 q -3.2812,0.41015 -5.4004,0.41015 z"
         style="font-style:normal;font-variant:normal;font-weight:normal;font-stretch:normal;font-size:70px;font-family:Oswald;-inkscape-font-specification:Oswald;fill:#ffffff;fill-opacity:1"
         id="path4165" />
      <path
         d="m 1189.9673,71.206047 0,-8.75 8.75,0 0,8.75 -8.75,0 z m 0,50.312503 0,-43.750003 8.75,0 0,43.750003 -8.75,0 z"
         style="font-style:normal;font-variant:normal;font-weight:normal;font-stretch:normal;font-size:70px;font-family:Oswald;-inkscape-font-specification:Oswald;fill:#ffffff;fill-opacity:1"
         id="path4167" />
      <path
         d="m 1218.7124,122.13378 q -5.4004,0 -8.6816,-3.21289 -3.2471,-3.21289 -4.4434,-8.33984 l 6.5625,-2.1875 q 2.3584,6.5625 6.5625,6.5625 2.085,0 3.2129,-1.12793 1.1621,-1.16211 1.1621,-3.24707 0,-3.042 -2.1875,-5.0586 l -8.75,-6.562497 q -1.4697,-0.991211 -2.4609,-1.845703 -0.9912,-0.888672 -2.0166,-2.15332 -1.0254,-1.264649 -1.5723,-2.836914 -0.5127,-1.572266 -0.5127,-3.417969 0,-5.605469 3.5547,-8.579102 3.5889,-2.973632 9.5703,-2.973632 2.8369,0 5.127,0.922851 2.29,0.888672 3.8281,2.529297 1.5722,1.640625 2.5635,3.657227 1.0253,1.982422 1.6064,4.443359 l -6.5625,2.1875 q -0.4785,-1.298828 -0.957,-2.22168 -0.4785,-0.957031 -1.2989,-2.050781 -0.7861,-1.09375 -1.8798,-1.674805 -1.0938,-0.615234 -2.4268,-0.615234 -2.085,0 -3.2471,1.162109 -1.1279,1.12793 -1.1279,3.212891 0,2.050781 2.1875,3.691406 l 8.75,6.5625 q 1.4697,1.162107 2.4951,2.255857 1.0596,1.05957 2.0508,2.49512 0.9912,1.40137 1.5039,3.14453 0.5127,1.74317 0.5127,3.72559 0,5.60547 -3.5889,8.5791 -3.5547,2.97363 -9.5361,2.97363 z"
         style="font-style:normal;font-variant:normal;font-weight:normal;font-stretch:normal;font-size:70px;font-family:Oswald;-inkscape-font-specification:Oswald;fill:#ffffff;fill-opacity:1"
         id="path4169" />
      <path
         d="m 1249.3032,122.13378 q -5.1611,0 -7.5195,-2.63183 -2.3242,-2.63184 -2.3926,-7.96387 l 0,-27.207033 -4.375,0 0,-6.5625 4.375,0 0,-15.3125 8.75,0 0,15.3125 6.5625,0 0,6.5625 -6.5625,0 0,25.532223 q 0,2.63184 0.7178,3.86231 0.7178,1.23047 2.9053,1.23047 0.957,0 2.9394,-0.3418 l 0,7.10938 q -3.2812,0.41015 -5.4004,0.41015 z"
         style="font-style:normal;font-variant:normal;font-weight:normal;font-stretch:normal;font-size:70px;font-family:Oswald;-inkscape-font-specification:Oswald;fill:#ffffff;fill-opacity:1"
         id="path4171" />
      <path
         d="m 1291.4126,122.13378 q -3.8623,0 -6.8018,-1.09375 -2.9394,-1.09375 -4.8193,-3.00781 -1.8799,-1.94824 -3.0762,-4.81934 -1.1621,-2.90527 -1.6406,-6.18652 -0.4785,-3.28125 -0.4785,-7.416993 l 0,-17.46582 q 0,-4.135742 0.4785,-7.416992 0.4785,-3.28125 1.6406,-6.152344 1.1963,-2.905273 3.0762,-4.819336 1.8799,-1.914062 4.8193,-3.007812 2.9395,-1.09375 6.8018,-1.09375 4.2725,0 7.3828,1.264648 3.1104,1.264649 4.9561,3.725586 1.8798,2.460938 2.8027,5.708008 0.957,3.24707 1.1279,7.58789 0.034,0.649415 0.034,2.016602 l -8.75,0 0,-1.948242 q -0.034,-1.811524 -0.1367,-3.076172 -0.1025,-1.298828 -0.376,-2.666016 -0.2734,-1.367187 -0.8203,-2.255859 -0.5127,-0.922852 -1.333,-1.674805 -0.7861,-0.786133 -2.0166,-1.127929 -1.2305,-0.375977 -2.8711,-0.375977 -2.1191,0 -3.6572,0.683594 -1.5039,0.683594 -2.3584,1.777344 -0.8545,1.05957 -1.333,2.871093 -0.4444,1.811524 -0.5811,3.554688 -0.1367,1.708984 -0.1367,4.238281 l 0,21.875003 q 0,2.1875 0.1709,3.96484 0.2051,1.77734 0.7519,3.55469 0.5469,1.74316 1.4014,2.93945 0.8887,1.19629 2.3242,1.94824 1.4698,0.71778 3.418,0.71778 1.9482,0 3.3496,-0.75196 1.4014,-0.75195 2.1875,-1.91406 0.8203,-1.16211 1.2647,-2.97363 0.4785,-1.81152 0.6152,-3.52051 0.1367,-1.70898 0.1367,-3.96484 l 0,-2.187503 8.75,0 0,2.187503 q 0,4.75097 -0.8545,8.33984 -0.8203,3.58887 -2.7002,6.35742 -1.8457,2.73438 -5.0586,4.16992 -3.1787,1.43555 -7.6904,1.43555 z"
         style="font-style:normal;font-variant:normal;font-weight:normal;font-stretch:normal;font-size:70px;font-family:Oswald;-inkscape-font-specification:Oswald;fill:#ffffff;fill-opacity:1"
         id="path4173" />
      <path
         d="m 1313.1851,121.51855 0,-61.250003 8.75,0 0,22.216797 q 1.9482,-1.777344 3.1787,-2.700195 1.2304,-0.957032 3.3838,-1.777344 2.1875,-0.854492 4.6484,-0.854492 2.8027,0 4.5459,2.050781 1.7432,2.050781 1.7432,5.024414 l 0,37.290042 -8.75,0 0,-32.812503 q 0,-2.255859 -0.5811,-3.31543 -0.5469,-1.05957 -2.4268,-1.05957 -2.666,0 -5.7421,2.563477 l 0,34.624026 -8.75,0 z"
         style="font-style:normal;font-variant:normal;font-weight:normal;font-stretch:normal;font-size:70px;font-family:Oswald;-inkscape-font-specification:Oswald;fill:#ffffff;fill-opacity:1"
         id="path4175" />
      <path
         d="m 1353.3462,122.13378 q -2.8711,0 -4.6143,-2.0166 -1.7431,-2.05078 -1.7431,-5.05859 l 0,-37.290043 8.75,0 0,34.624023 q 0,1.36719 0.8203,2.22168 0.8545,0.85449 2.1875,0.85449 0.7178,0 1.4013,-0.1709 0.6836,-0.17089 1.3331,-0.58105 0.6836,-0.44434 1.0595,-0.68359 0.376,-0.27344 1.0596,-0.88868 0.7178,-0.61523 0.8887,-0.75195 l 0,-34.624023 8.75,0 0,43.750003 -8.75,0 0,-4.7168 q -1.2989,1.12793 -1.9141,1.64063 -0.581,0.51269 -1.8115,1.40136 -1.2305,0.85449 -2.1875,1.26465 -0.9229,0.37598 -2.3242,0.68359 -1.4014,0.3418 -2.9053,0.3418 z"
         style="font-style:normal;font-variant:normal;font-weight:normal;font-stretch:normal;font-size:70px;font-family:Oswald;-inkscape-font-specification:Oswald;fill:#ffffff;fill-opacity:1"
         id="path4177" />
      <path
         d="m 1380.7241,121.51855 0,-43.750003 8.75,0 0,5.844727 q 1.333,-2.597657 3.8623,-4.511719 2.5635,-1.948242 5.6739,-1.948242 0.1025,0 1.4013,0.136718 l 0,9.672852 q -2.4267,-0.957031 -4.8535,-0.957031 -2.7344,0 -4.4092,1.640625 -1.6748,1.640625 -1.6748,4.34082 l 0,29.531253 -8.75,0 z"
         style="font-style:normal;font-variant:normal;font-weight:normal;font-stretch:normal;font-size:70px;font-family:Oswald;-inkscape-font-specification:Oswald;fill:#ffffff;fill-opacity:1"
         id="path4179" />
      <path
         d="m 1415.0405,122.13378 q -3.1787,0 -5.5371,-1.05957 -2.3242,-1.05957 -3.7256,-2.76855 -1.4013,-1.70899 -2.2558,-4.34082 -0.8545,-2.66602 -1.1963,-5.29786 -0.3076,-2.66601 -0.376,-6.18652 -0.1025,-2.836913 0,-5.708007 0.068,-3.486328 0.376,-6.152343 0.3418,-2.666016 1.1963,-5.297852 0.8886,-2.666016 2.2558,-4.34082 1.4014,-1.708985 3.7256,-2.768555 2.3584,-1.05957 5.5371,-1.05957 6.9043,0 9.9121,3.725586 3.0078,3.725586 3.2129,11.040039 l 0,1.162109 -8.75,0 0,-1.230469 q -0.034,-1.640625 -0.2392,-2.871093 -0.1709,-1.230469 -0.6153,-2.460938 -0.4101,-1.230469 -1.333,-1.879883 -0.8886,-0.683594 -2.1875,-0.683594 -1.2988,0 -2.1875,0.786133 -0.8886,0.751953 -1.3672,2.1875 -0.4443,1.435547 -0.6494,2.973633 -0.2051,1.503906 -0.2392,3.486328 -0.1368,4.238281 0,12.783206 0.068,1.87988 0.2734,3.31543 0.2051,1.40136 0.6494,2.73437 0.4785,1.29883 1.3672,2.0166 0.8887,0.71778 2.1533,0.71778 1.1621,0 1.9824,-0.44434 0.8545,-0.44433 1.2989,-1.09375 0.4443,-0.64941 0.6836,-1.74316 0.2734,-1.09375 0.3418,-2.0166 0.068,-0.95704 0.068,-2.39258 l 0,-1.05957 8.75,0 0,1.12793 q -0.1025,3.45215 -0.8545,6.11816 -0.7519,2.63184 -2.29,4.61426 -1.5039,1.98242 -4.0332,3.04199 -2.4951,1.02539 -5.9473,1.02539 z"
         style="font-style:normal;font-variant:normal;font-weight:normal;font-stretch:normal;font-size:70px;font-family:Oswald;-inkscape-font-specification:Oswald;fill:#ffffff;fill-opacity:1"
         id="path4181" />
      <path
         d="m 1433.6343,121.51855 0,-61.250003 8.75,0 0,22.216797 q 1.9482,-1.777344 3.1787,-2.700195 1.2305,-0.957032 3.3838,-1.777344 2.1875,-0.854492 4.6484,-0.854492 2.8027,0 4.5459,2.050781 1.7432,2.050781 1.7432,5.024414 l 0,37.290042 -8.75,0 0,-32.812503 q 0,-2.255859 -0.5811,-3.31543 -0.5469,-1.05957 -2.4267,-1.05957 -2.6661,0 -5.7422,2.563477 l 0,34.624026 -8.75,0 z"
         style="font-style:normal;font-variant:normal;font-weight:normal;font-stretch:normal;font-size:70px;font-family:Oswald;-inkscape-font-specification:Oswald;fill:#ffffff;fill-opacity:1"
         id="path4183" />
    </g>
  </g>
</svg>
