<svg xmlns="http://www.w3.org/2000/svg" width="3840" height="2160"><path d="M2019,1035L1785,1073L1864,1335Z" fill="rgb(27,104,107)" stroke="rgb(27,104,107)" stroke-width="1.51"/><path d="M1864,1335L1987,1437L2019,1035Z" fill="rgb(27,101,105)" stroke="rgb(27,101,105)" stroke-width="1.51"/><path d="M1987,1437L2268,1322L2019,1035Z" fill="rgb(27,99,104)" stroke="rgb(27,99,104)" stroke-width="1.51"/><path d="M2019,1035L2010,779L1785,1073Z" fill="rgb(27,107,108)" stroke="rgb(27,107,108)" stroke-width="1.51"/><path d="M2311,984L2010,779L2019,1035Z" fill="rgb(27,106,107)" stroke="rgb(27,106,107)" stroke-width="1.51"/><path d="M2268,1322L2311,984L2019,1035Z" fill="rgb(27,101,105)" stroke="rgb(27,101,105)" stroke-width="1.51"/><path d="M1864,1335L1870,1669L1987,1437Z" fill="rgb(27,97,103)" stroke="rgb(27,97,103)" stroke-width="1.51"/><path d="M1987,1437L2154,1723L2268,1322Z" fill="rgb(27,94,102)" stroke="rgb(27,94,102)" stroke-width="1.51"/><path d="M1562,1716L1870,1669L1864,1335Z" fill="rgb(27,97,103)" stroke="rgb(27,97,103)" stroke-width="1.51"/><path d="M2010,779L1853,682L1785,1073Z" fill="rgb(27,110,109)" stroke="rgb(27,110,109)" stroke-width="1.51"/><path d="M1785,1073L1375,1313L1864,1335Z" fill="rgb(27,105,107)" stroke="rgb(27,105,107)" stroke-width="1.51"/><path d="M1569,731L1458,985L1785,1073Z" fill="rgb(27,111,110)" stroke="rgb(27,111,110)" stroke-width="1.51"/><path d="M1458,985L1375,1313L1785,1073Z" fill="rgb(27,108,109)" stroke="rgb(27,108,109)" stroke-width="1.51"/><path d="M1853,682L1569,731L1785,1073Z" fill="rgb(27,112,110)" stroke="rgb(27,112,110)" stroke-width="1.51"/><path d="M1870,1669L2154,1723L1987,1437Z" fill="rgb(27,94,101)" stroke="rgb(27,94,101)" stroke-width="1.51"/><path d="M2311,984L2301,698L2010,779Z" fill="rgb(27,107,108)" stroke="rgb(27,107,108)" stroke-width="1.51"/><path d="M2010,779L2044,540L1853,682Z" fill="rgb(27,113,110)" stroke="rgb(27,113,110)" stroke-width="1.51"/><path d="M2301,698L2044,540L2010,779Z" fill="rgb(27,111,110)" stroke="rgb(27,111,110)" stroke-width="1.51"/><path d="M1853,682L1729,490L1569,731Z" fill="rgb(27,116,112)" stroke="rgb(27,116,112)" stroke-width="1.51"/><path d="M1375,1313L1562,1716L1864,1335Z" fill="rgb(27,101,105)" stroke="rgb(27,101,105)" stroke-width="1.51"/><path d="M1870,1669L2092,1880L2154,1723Z" fill="rgb(26,90,100)" stroke="rgb(26,90,100)" stroke-width="1.51"/><path d="M2044,540L1729,490L1853,682Z" fill="rgb(27,115,112)" stroke="rgb(27,115,112)" stroke-width="1.51"/><path d="M1569,731L1274,850L1458,985Z" fill="rgb(27,115,111)" stroke="rgb(27,115,111)" stroke-width="1.51"/><path d="M1108,1024L1127,1280L1375,1313Z" fill="rgb(27,110,110)" stroke="rgb(27,110,110)" stroke-width="1.51"/><path d="M1192,469L1274,850L1569,731Z" fill="rgb(27,119,114)" stroke="rgb(27,119,114)" stroke-width="1.51"/><path d="M1713,1981L2092,1880L1870,1669Z" fill="rgb(27,91,99)" stroke="rgb(27,91,99)" stroke-width="1.51"/><path d="M2092,1880L2347,1777L2154,1723Z" fill="rgb(26,88,98)" stroke="rgb(26,88,98)" stroke-width="1.51"/><path d="M2154,1723L2347,1777L2268,1322Z" fill="rgb(27,91,100)" stroke="rgb(27,91,100)" stroke-width="1.51"/><path d="M2268,1322L2692,1189L2311,984Z" fill="rgb(27,98,103)" stroke="rgb(27,98,103)" stroke-width="1.51"/><path d="M2693,691L2421,550L2301,698Z" fill="rgb(27,107,108)" stroke="rgb(27,107,108)" stroke-width="1.51"/><path d="M2568,1625L2692,1189L2268,1322Z" fill="rgb(27,92,101)" stroke="rgb(27,92,101)" stroke-width="1.51"/><path d="M2347,1777L2568,1625L2268,1322Z" fill="rgb(27,90,99)" stroke="rgb(27,90,99)" stroke-width="1.51"/><path d="M2301,698L2421,550L2044,540Z" fill="rgb(27,111,109)" stroke="rgb(27,111,109)" stroke-width="1.51"/><path d="M1679,278L1448,404L1729,490Z" fill="rgb(26,122,115)" stroke="rgb(26,122,115)" stroke-width="1.51"/><path d="M2693,691L2301,698L2311,984Z" fill="rgb(27,105,107)" stroke="rgb(27,105,107)" stroke-width="1.51"/><path d="M1375,1313L1123,1666L1562,1716Z" fill="rgb(27,102,106)" stroke="rgb(27,102,106)" stroke-width="1.51"/><path d="M1108,1024L1375,1313L1458,985Z" fill="rgb(27,111,110)" stroke="rgb(27,111,110)" stroke-width="1.51"/><path d="M1274,850L1108,1024L1458,985Z" fill="rgb(27,114,111)" stroke="rgb(27,114,111)" stroke-width="1.51"/><path d="M1562,1716L1713,1981L1870,1669Z" fill="rgb(27,94,101)" stroke="rgb(27,94,101)" stroke-width="1.51"/><path d="M1581,1986L1713,1981L1562,1716Z" fill="rgb(27,93,100)" stroke="rgb(27,93,100)" stroke-width="1.51"/><path d="M1253,1981L1581,1986L1562,1716Z" fill="rgb(27,94,101)" stroke="rgb(27,94,101)" stroke-width="1.51"/><path d="M2568,1625L2764,1459L2692,1189Z" fill="rgb(27,90,100)" stroke="rgb(27,90,100)" stroke-width="1.51"/><path d="M1729,490L1448,404L1569,731Z" fill="rgb(27,120,114)" stroke="rgb(27,120,114)" stroke-width="1.51"/><path d="M1274,850L982,978L1108,1024Z" fill="rgb(27,116,112)" stroke="rgb(27,116,112)" stroke-width="1.51"/><path d="M1679,278L1729,490L2093,236Z" fill="rgb(26,121,114)" stroke="rgb(26,121,114)" stroke-width="1.51"/><path d="M2865,1025L2693,691L2692,1189Z" fill="rgb(27,98,104)" stroke="rgb(27,98,104)" stroke-width="1.51"/><path d="M2692,1189L2693,691L2311,984Z" fill="rgb(27,100,105)" stroke="rgb(27,100,105)" stroke-width="1.51"/><path d="M2093,236L1729,490L2044,540Z" fill="rgb(27,118,114)" stroke="rgb(27,118,114)" stroke-width="1.51"/><path d="M1127,1280L1123,1666L1375,1313Z" fill="rgb(28,106,107)" stroke="rgb(28,106,107)" stroke-width="1.51"/><path d="M916,1366L1123,1666L1127,1280Z" fill="rgb(28,108,108)" stroke="rgb(28,108,108)" stroke-width="1.51"/><path d="M2421,550L2093,236L2044,540Z" fill="rgb(27,115,111)" stroke="rgb(27,115,111)" stroke-width="1.51"/><path d="M2693,691L2591,500L2421,550Z" fill="rgb(27,108,108)" stroke="rgb(27,108,108)" stroke-width="1.51"/><path d="M2381,192L2093,236L2421,550Z" fill="rgb(27,116,112)" stroke="rgb(27,116,112)" stroke-width="1.51"/><path d="M2888,1454L2865,1025L2692,1189Z" fill="rgb(27,93,100)" stroke="rgb(27,93,100)" stroke-width="1.51"/><path d="M1108,1024L982,978L1127,1280Z" fill="rgb(27,114,111)" stroke="rgb(27,114,111)" stroke-width="1.51"/><path d="M918,707L982,978L1274,850Z" fill="rgb(27,119,114)" stroke="rgb(27,119,114)" stroke-width="1.51"/><path d="M1408,-28L1582,256L1873,-202Z" fill="rgb(25,130,119)" stroke="rgb(25,130,119)" stroke-width="1.51"/><path d="M1679,278L1582,256L1448,404Z" fill="rgb(26,124,116)" stroke="rgb(26,124,116)" stroke-width="1.51"/><path d="M2347,1777L2652,2051L2568,1625Z" fill="rgb(26,84,97)" stroke="rgb(26,84,97)" stroke-width="1.51"/><path d="M2868,1649L2888,1454L2764,1459Z" fill="rgb(26,86,98)" stroke="rgb(26,86,98)" stroke-width="1.51"/><path d="M2092,1880L2329,2079L2347,1777Z" fill="rgb(26,85,97)" stroke="rgb(26,85,97)" stroke-width="1.51"/><path d="M2345,2225L2329,2079L2136,2367Z" fill="rgb(25,80,94)" stroke="rgb(25,80,94)" stroke-width="1.51"/><path d="M2329,2079L2092,1880L2136,2367Z" fill="rgb(25,82,95)" stroke="rgb(25,82,95)" stroke-width="1.51"/><path d="M2764,1459L2888,1454L2692,1189Z" fill="rgb(27,90,100)" stroke="rgb(27,90,100)" stroke-width="1.51"/><path d="M2868,1649L2764,1459L2568,1625Z" fill="rgb(26,86,97)" stroke="rgb(26,86,97)" stroke-width="1.51"/><path d="M1286,166L1192,469L1448,404Z" fill="rgb(26,127,118)" stroke="rgb(26,127,118)" stroke-width="1.51"/><path d="M1448,404L1192,469L1569,731Z" fill="rgb(27,122,115)" stroke="rgb(27,122,115)" stroke-width="1.51"/><path d="M982,978L916,1366L1127,1280Z" fill="rgb(27,113,110)" stroke="rgb(27,113,110)" stroke-width="1.51"/><path d="M1123,1666L1253,1981L1562,1716Z" fill="rgb(27,98,103)" stroke="rgb(27,98,103)" stroke-width="1.51"/><path d="M2136,2367L2092,1880L1713,1981Z" fill="rgb(26,85,97)" stroke="rgb(26,85,97)" stroke-width="1.51"/><path d="M765,1869L1253,1981L1123,1666Z" fill="rgb(27,100,104)" stroke="rgb(27,100,104)" stroke-width="1.51"/><path d="M2652,2051L2868,1649L2568,1625Z" fill="rgb(26,83,95)" stroke="rgb(26,83,95)" stroke-width="1.51"/><path d="M1408,-28L1286,166L1582,256Z" fill="rgb(25,130,118)" stroke="rgb(25,130,118)" stroke-width="1.51"/><path d="M2555,245L2381,192L2421,550Z" fill="rgb(27,114,111)" stroke="rgb(27,114,111)" stroke-width="1.51"/><path d="M916,1366L915,1598L1123,1666Z" fill="rgb(27,106,107)" stroke="rgb(27,106,107)" stroke-width="1.51"/><path d="M1192,469L918,707L1274,850Z" fill="rgb(27,122,115)" stroke="rgb(27,122,115)" stroke-width="1.51"/><path d="M982,978L627,1147L916,1366Z" fill="rgb(27,115,112)" stroke="rgb(27,115,112)" stroke-width="1.51"/><path d="M916,1366L638,1582L915,1598Z" fill="rgb(27,109,108)" stroke="rgb(27,109,108)" stroke-width="1.51"/><path d="M3069,445L2591,500L2693,691Z" fill="rgb(27,106,108)" stroke="rgb(27,106,108)" stroke-width="1.51"/><path d="M3069,445L2555,245L2591,500Z" fill="rgb(27,110,109)" stroke="rgb(27,110,109)" stroke-width="1.51"/><path d="M2591,500L2555,245L2421,550Z" fill="rgb(27,111,110)" stroke="rgb(27,111,110)" stroke-width="1.51"/><path d="M2329,2079L2652,2051L2347,1777Z" fill="rgb(26,82,96)" stroke="rgb(26,82,96)" stroke-width="1.51"/><path d="M1749,2361L1713,1981L1581,1986Z" fill="rgb(26,88,98)" stroke="rgb(26,88,98)" stroke-width="1.51"/><path d="M1253,1981L1425,2195L1581,1986Z" fill="rgb(27,92,100)" stroke="rgb(27,92,100)" stroke-width="1.51"/><path d="M1236,2176L1425,2195L1253,1981Z" fill="rgb(26,92,100)" stroke="rgb(26,92,100)" stroke-width="1.51"/><path d="M2345,2225L2652,2051L2329,2079Z" fill="rgb(25,80,94)" stroke="rgb(25,80,94)" stroke-width="1.51"/><path d="M1582,256L1286,166L1448,404Z" fill="rgb(26,127,117)" stroke="rgb(26,127,117)" stroke-width="1.51"/><path d="M1192,469L784,511L918,707Z" fill="rgb(26,126,117)" stroke="rgb(26,126,117)" stroke-width="1.51"/><path d="M1582,256L1679,278L1873,-202Z" fill="rgb(26,127,117)" stroke="rgb(26,127,117)" stroke-width="1.51"/><path d="M1425,2195L1749,2361L1581,1986Z" fill="rgb(26,88,98)" stroke="rgb(26,88,98)" stroke-width="1.51"/><path d="M2859,2308L2996,1901L2652,2051Z" fill="rgb(25,76,92)" stroke="rgb(25,76,92)" stroke-width="1.51"/><path d="M1749,2361L2136,2367L1713,1981Z" fill="rgb(26,85,97)" stroke="rgb(26,85,97)" stroke-width="1.51"/><path d="M1581,2632L1792,2560L1749,2361Z" fill="rgb(26,87,97)" stroke="rgb(26,87,97)" stroke-width="1.51"/><path d="M880,2167L1236,2176L1253,1981Z" fill="rgb(26,94,101)" stroke="rgb(26,94,101)" stroke-width="1.51"/><path d="M2865,1025L3065,716L2693,691Z" fill="rgb(27,100,105)" stroke="rgb(27,100,105)" stroke-width="1.51"/><path d="M3248,1000L3065,716L2865,1025Z" fill="rgb(27,96,103)" stroke="rgb(27,96,103)" stroke-width="1.51"/><path d="M3197,1387L2865,1025L2888,1454Z" fill="rgb(27,89,99)" stroke="rgb(27,89,99)" stroke-width="1.51"/><path d="M3229,1698L3197,1387L2888,1454Z" fill="rgb(26,83,96)" stroke="rgb(26,83,96)" stroke-width="1.51"/><path d="M3229,1698L2888,1454L2868,1649Z" fill="rgb(26,83,96)" stroke="rgb(26,83,96)" stroke-width="1.51"/><path d="M646,801L627,1147L982,978Z" fill="rgb(26,120,114)" stroke="rgb(26,120,114)" stroke-width="1.51"/><path d="M915,1598L765,1869L1123,1666Z" fill="rgb(27,104,106)" stroke="rgb(27,104,106)" stroke-width="1.51"/><path d="M2652,2051L2996,1901L2868,1649Z" fill="rgb(25,80,95)" stroke="rgb(25,80,95)" stroke-width="1.51"/><path d="M2669,2359L2652,2051L2345,2225Z" fill="rgb(25,77,93)" stroke="rgb(25,77,93)" stroke-width="1.51"/><path d="M840,144L784,511L1192,469Z" fill="rgb(26,130,119)" stroke="rgb(26,130,119)" stroke-width="1.51"/><path d="M1873,-202L1679,278L2093,236Z" fill="rgb(26,125,116)" stroke="rgb(26,125,116)" stroke-width="1.51"/><path d="M918,707L646,801L982,978Z" fill="rgb(27,122,115)" stroke="rgb(27,122,115)" stroke-width="1.51"/><path d="M840,144L1192,469L1286,166Z" fill="rgb(25,130,119)" stroke="rgb(25,130,119)" stroke-width="1.51"/><path d="M784,511L646,801L918,707Z" fill="rgb(26,126,117)" stroke="rgb(26,126,117)" stroke-width="1.51"/><path d="M3197,1387L3248,1000L2865,1025Z" fill="rgb(26,91,100)" stroke="rgb(26,91,100)" stroke-width="1.51"/><path d="M559,1396L638,1582L916,1366Z" fill="rgb(28,112,110)" stroke="rgb(28,112,110)" stroke-width="1.51"/><path d="M638,1582L765,1869L915,1598Z" fill="rgb(27,106,107)" stroke="rgb(27,106,107)" stroke-width="1.51"/><path d="M2381,192L2257,-134L2093,236Z" fill="rgb(27,121,114)" stroke="rgb(27,121,114)" stroke-width="1.51"/><path d="M2723,-149L2257,-134L2381,192Z" fill="rgb(27,120,114)" stroke="rgb(27,120,114)" stroke-width="1.51"/><path d="M2723,-149L2381,192L2555,245Z" fill="rgb(27,117,113)" stroke="rgb(27,117,113)" stroke-width="1.51"/><path d="M3065,716L3069,445L2693,691Z" fill="rgb(27,103,106)" stroke="rgb(27,103,106)" stroke-width="1.51"/><path d="M3231,531L3069,445L3065,716Z" fill="rgb(27,102,105)" stroke="rgb(27,102,105)" stroke-width="1.51"/><path d="M2257,-134L2107,-173L2093,236Z" fill="rgb(26,124,116)" stroke="rgb(26,124,116)" stroke-width="1.51"/><path d="M2136,2367L2282,2489L2345,2225Z" fill="rgb(25,81,94)" stroke="rgb(25,81,94)" stroke-width="1.51"/><path d="M2062,2540L2282,2489L2136,2367Z" fill="rgb(25,82,95)" stroke="rgb(25,82,95)" stroke-width="1.51"/><path d="M1749,2361L2062,2540L2136,2367Z" fill="rgb(26,84,96)" stroke="rgb(26,84,96)" stroke-width="1.51"/><path d="M1792,2560L2062,2540L1749,2361Z" fill="rgb(26,85,97)" stroke="rgb(26,85,97)" stroke-width="1.51"/><path d="M2107,-173L1873,-202L2093,236Z" fill="rgb(26,126,117)" stroke="rgb(26,126,117)" stroke-width="1.51"/><path d="M333,1179L559,1396L627,1147Z" fill="rgb(27,118,113)" stroke="rgb(27,118,113)" stroke-width="1.51"/><path d="M627,1147L559,1396L916,1366Z" fill="rgb(27,114,112)" stroke="rgb(27,114,112)" stroke-width="1.51"/><path d="M1581,2632L1425,2195L1263,2524Z" fill="rgb(27,89,99)" stroke="rgb(27,89,99)" stroke-width="1.51"/><path d="M1581,2632L1749,2361L1425,2195Z" fill="rgb(26,88,98)" stroke="rgb(26,88,98)" stroke-width="1.51"/><path d="M2282,2489L2669,2359L2345,2225Z" fill="rgb(25,79,93)" stroke="rgb(25,79,93)" stroke-width="1.51"/><path d="M2996,1901L3229,1698L2868,1649Z" fill="rgb(25,80,94)" stroke="rgb(25,80,94)" stroke-width="1.51"/><path d="M3197,1387L3506,1069L3248,1000Z" fill="rgb(26,88,99)" stroke="rgb(26,88,99)" stroke-width="1.51"/><path d="M3318,1887L3229,1698L2996,1901Z" fill="rgb(25,77,92)" stroke="rgb(25,77,92)" stroke-width="1.51"/><path d="M765,1869L880,2167L1253,1981Z" fill="rgb(27,98,103)" stroke="rgb(27,98,103)" stroke-width="1.51"/><path d="M674,2245L880,2167L765,1869Z" fill="rgb(27,98,103)" stroke="rgb(27,98,103)" stroke-width="1.51"/><path d="M518,2023L765,1869L638,1582Z" fill="rgb(28,104,106)" stroke="rgb(28,104,106)" stroke-width="1.51"/><path d="M3069,445L2952,83L2555,245Z" fill="rgb(27,111,110)" stroke="rgb(27,111,110)" stroke-width="1.51"/><path d="M3315,677L3231,531L3065,716Z" fill="rgb(27,100,104)" stroke="rgb(27,100,104)" stroke-width="1.51"/><path d="M2752,2652L2859,2308L2669,2359Z" fill="rgb(24,75,92)" stroke="rgb(24,75,92)" stroke-width="1.51"/><path d="M2669,2359L2859,2308L2652,2051Z" fill="rgb(24,75,92)" stroke="rgb(24,75,92)" stroke-width="1.51"/><path d="M3248,1000L3315,677L3065,716Z" fill="rgb(27,96,102)" stroke="rgb(27,96,102)" stroke-width="1.51"/><path d="M3548,777L3315,677L3248,1000Z" fill="rgb(27,95,101)" stroke="rgb(27,95,101)" stroke-width="1.51"/><path d="M784,511L473,584L646,801Z" fill="rgb(26,128,119)" stroke="rgb(26,128,119)" stroke-width="1.51"/><path d="M1064,-52L840,144L1286,166Z" fill="rgb(24,134,121)" stroke="rgb(24,134,121)" stroke-width="1.51"/><path d="M1064,-52L1286,166L1408,-28Z" fill="rgb(25,134,120)" stroke="rgb(25,134,120)" stroke-width="1.51"/><path d="M1263,2524L1425,2195L1236,2176Z" fill="rgb(27,91,100)" stroke="rgb(27,91,100)" stroke-width="1.51"/><path d="M1792,2560L1581,2632L2062,2540Z" fill="rgb(26,86,97)" stroke="rgb(26,86,97)" stroke-width="1.51"/><path d="M1407,-323L1064,-52L1408,-28Z" fill="rgb(25,134,121)" stroke="rgb(25,134,121)" stroke-width="1.51"/><path d="M3349,177L2952,83L3069,445Z" fill="rgb(27,108,108)" stroke="rgb(27,108,108)" stroke-width="1.51"/><path d="M862,2510L1263,2524L1236,2176Z" fill="rgb(27,93,101)" stroke="rgb(27,93,101)" stroke-width="1.51"/><path d="M2257,-134L2149,-357L2107,-173Z" fill="rgb(26,124,116)" stroke="rgb(26,124,116)" stroke-width="1.51"/><path d="M2107,-173L2149,-357L1873,-202Z" fill="rgb(26,125,117)" stroke="rgb(26,125,117)" stroke-width="1.51"/><path d="M2952,83L2723,-149L2555,245Z" fill="rgb(27,116,112)" stroke="rgb(27,116,112)" stroke-width="1.51"/><path d="M1873,-202L1721,-389L1408,-28Z" fill="rgb(25,130,119)" stroke="rgb(25,130,119)" stroke-width="1.51"/><path d="M2299,-361L2149,-357L2257,-134Z" fill="rgb(26,123,116)" stroke="rgb(26,123,116)" stroke-width="1.51"/><path d="M671,180L473,584L784,511Z" fill="rgb(25,132,121)" stroke="rgb(25,132,121)" stroke-width="1.51"/><path d="M646,801L333,1179L627,1147Z" fill="rgb(26,122,115)" stroke="rgb(26,122,115)" stroke-width="1.51"/><path d="M3670,1395L3506,1069L3197,1387Z" fill="rgb(26,84,96)" stroke="rgb(26,84,96)" stroke-width="1.51"/><path d="M3169,2175L3318,1887L2996,1901Z" fill="rgb(25,74,91)" stroke="rgb(25,74,91)" stroke-width="1.51"/><path d="M2149,-357L1721,-389L1873,-202Z" fill="rgb(26,127,117)" stroke="rgb(26,127,117)" stroke-width="1.51"/><path d="M2723,-149L2299,-361L2257,-134Z" fill="rgb(27,121,114)" stroke="rgb(27,121,114)" stroke-width="1.51"/><path d="M2149,-357L2299,-361L1721,-389Z" fill="rgb(26,125,116)" stroke="rgb(26,125,116)" stroke-width="1.51"/><path d="M1721,-389L1407,-323L1408,-28Z" fill="rgb(25,131,119)" stroke="rgb(25,131,119)" stroke-width="1.51"/><path d="M3568,1651L3197,1387L3229,1698Z" fill="rgb(25,80,95)" stroke="rgb(25,80,95)" stroke-width="1.51"/><path d="M202,1736L518,2023L638,1582Z" fill="rgb(27,107,108)" stroke="rgb(27,107,108)" stroke-width="1.51"/><path d="M244,699L333,1179L646,801Z" fill="rgb(26,126,117)" stroke="rgb(26,126,117)" stroke-width="1.51"/><path d="M879,-85L840,144L1064,-52Z" fill="rgb(24,138,123)" stroke="rgb(24,138,123)" stroke-width="1.51"/><path d="M879,-85L671,180L840,144Z" fill="rgb(23,138,123)" stroke="rgb(23,138,123)" stroke-width="1.51"/><path d="M840,144L671,180L784,511Z" fill="rgb(25,134,121)" stroke="rgb(25,134,121)" stroke-width="1.51"/><path d="M2859,2308L3169,2175L2996,1901Z" fill="rgb(24,73,91)" stroke="rgb(24,73,91)" stroke-width="1.51"/><path d="M959,-357L879,-85L1064,-52Z" fill="rgb(24,138,122)" stroke="rgb(24,138,122)" stroke-width="1.51"/><path d="M880,2167L862,2510L1236,2176Z" fill="rgb(27,94,101)" stroke="rgb(27,94,101)" stroke-width="1.51"/><path d="M202,1736L638,1582L559,1396Z" fill="rgb(27,112,110)" stroke="rgb(27,112,110)" stroke-width="1.51"/><path d="M518,2023L674,2245L765,1869Z" fill="rgb(27,100,104)" stroke="rgb(27,100,104)" stroke-width="1.51"/><path d="M3506,1069L3548,777L3248,1000Z" fill="rgb(27,91,100)" stroke="rgb(27,91,100)" stroke-width="1.51"/><path d="M3315,677L3638,547L3231,531Z" fill="rgb(27,98,104)" stroke="rgb(27,98,104)" stroke-width="1.51"/><path d="M3349,177L3033,-122L2952,83Z" fill="rgb(27,112,110)" stroke="rgb(27,112,110)" stroke-width="1.51"/><path d="M2282,2489L2752,2652L2669,2359Z" fill="rgb(25,77,93)" stroke="rgb(25,77,93)" stroke-width="1.51"/><path d="M2859,2308L2932,2618L3169,2175Z" fill="rgb(24,73,91)" stroke="rgb(24,73,91)" stroke-width="1.51"/><path d="M2062,2540L2752,2652L2282,2489Z" fill="rgb(25,79,94)" stroke="rgb(25,79,94)" stroke-width="1.51"/><path d="M1581,2632L2752,2652L2062,2540Z" fill="rgb(25,82,95)" stroke="rgb(25,82,95)" stroke-width="1.51"/><path d="M674,2245L862,2510L880,2167Z" fill="rgb(27,96,102)" stroke="rgb(27,96,102)" stroke-width="1.51"/><path d="M1263,2524L862,2510L1581,2632Z" fill="rgb(27,91,100)" stroke="rgb(27,91,100)" stroke-width="1.51"/><path d="M2952,83L3033,-122L2723,-149Z" fill="rgb(27,116,112)" stroke="rgb(27,116,112)" stroke-width="1.51"/><path d="M2723,-149L2761,-414L2299,-361Z" fill="rgb(27,119,114)" stroke="rgb(27,119,114)" stroke-width="1.51"/><path d="M3349,177L3069,445L3231,531Z" fill="rgb(28,104,106)" stroke="rgb(28,104,106)" stroke-width="1.51"/><path d="M3487,1906L3568,1651L3318,1887Z" fill="rgb(25,74,91)" stroke="rgb(25,74,91)" stroke-width="1.51"/><path d="M3318,1887L3568,1651L3229,1698Z" fill="rgb(25,76,92)" stroke="rgb(25,76,92)" stroke-width="1.51"/><path d="M3506,1069L3745,736L3548,777Z" fill="rgb(27,91,100)" stroke="rgb(27,91,100)" stroke-width="1.51"/><path d="M3169,2175L3487,1906L3318,1887Z" fill="rgb(24,72,90)" stroke="rgb(24,72,90)" stroke-width="1.51"/><path d="M3612,2300L3487,1906L3169,2175Z" fill="rgb(23,69,89)" stroke="rgb(23,69,89)" stroke-width="1.51"/><path d="M382,249L364,421L671,180Z" fill="rgb(24,137,122)" stroke="rgb(24,137,122)" stroke-width="1.51"/><path d="M671,180L364,421L473,584Z" fill="rgb(25,135,121)" stroke="rgb(25,135,121)" stroke-width="1.51"/><path d="M473,584L244,699L646,801Z" fill="rgb(26,129,118)" stroke="rgb(26,129,118)" stroke-width="1.51"/><path d="M3638,547L3349,177L3231,531Z" fill="rgb(27,102,105)" stroke="rgb(27,102,105)" stroke-width="1.51"/><path d="M364,421L244,699L473,584Z" fill="rgb(25,133,120)" stroke="rgb(25,133,120)" stroke-width="1.51"/><path d="M333,1179L180,1344L559,1396Z" fill="rgb(27,118,113)" stroke="rgb(27,118,113)" stroke-width="1.51"/><path d="M84,1181L180,1344L333,1179Z" fill="rgb(27,121,115)" stroke="rgb(27,121,115)" stroke-width="1.51"/><path d="M1407,-323L1226,-437L1064,-52Z" fill="rgb(25,135,121)" stroke="rgb(25,135,121)" stroke-width="1.51"/><path d="M301,-201L382,249L671,180Z" fill="rgb(23,142,125)" stroke="rgb(23,142,125)" stroke-width="1.51"/><path d="M1721,-389L1226,-437L1407,-323Z" fill="rgb(25,132,120)" stroke="rgb(25,132,120)" stroke-width="1.51"/><path d="M2761,-414L1226,-437L1721,-389Z" fill="rgb(26,127,117)" stroke="rgb(26,127,117)" stroke-width="1.51"/><path d="M2752,2652L2932,2618L2859,2308Z" fill="rgb(24,74,91)" stroke="rgb(24,74,91)" stroke-width="1.51"/><path d="M3568,1651L3670,1395L3197,1387Z" fill="rgb(26,81,94)" stroke="rgb(26,81,94)" stroke-width="1.51"/><path d="M3837,1442L3670,1395L3568,1651Z" fill="rgb(25,78,94)" stroke="rgb(25,78,94)" stroke-width="1.51"/><path d="M-51,460L-85,876L244,699Z" fill="rgb(25,134,121)" stroke="rgb(25,134,121)" stroke-width="1.51"/><path d="M666,-198L671,180L879,-85Z" fill="rgb(23,140,124)" stroke="rgb(23,140,124)" stroke-width="1.51"/><path d="M2299,-361L2761,-414L1721,-389Z" fill="rgb(26,123,115)" stroke="rgb(26,123,115)" stroke-width="1.51"/><path d="M2926,-374L2761,-414L2723,-149Z" fill="rgb(27,117,112)" stroke="rgb(27,117,112)" stroke-width="1.51"/><path d="M2926,-374L2723,-149L3033,-122Z" fill="rgb(27,116,112)" stroke="rgb(27,116,112)" stroke-width="1.51"/><path d="M180,1344L202,1736L559,1396Z" fill="rgb(27,115,112)" stroke="rgb(27,115,112)" stroke-width="1.51"/><path d="M237,2350L491,2521L674,2245Z" fill="rgb(27,100,104)" stroke="rgb(27,100,104)" stroke-width="1.51"/><path d="M674,2245L491,2521L862,2510Z" fill="rgb(27,98,103)" stroke="rgb(27,98,103)" stroke-width="1.51"/><path d="M1226,-437L959,-357L1064,-52Z" fill="rgb(24,136,122)" stroke="rgb(24,136,122)" stroke-width="1.51"/><path d="M3548,777L3638,547L3315,677Z" fill="rgb(27,96,102)" stroke="rgb(27,96,102)" stroke-width="1.51"/><path d="M3745,736L3638,547L3548,777Z" fill="rgb(27,94,101)" stroke="rgb(27,94,101)" stroke-width="1.51"/><path d="M180,1344L-54,1761L202,1736Z" fill="rgb(27,114,112)" stroke="rgb(27,114,112)" stroke-width="1.51"/><path d="M244,699L84,1181L333,1179Z" fill="rgb(26,125,117)" stroke="rgb(26,125,117)" stroke-width="1.51"/><path d="M-38,1305L84,1181L-85,876Z" fill="rgb(26,126,117)" stroke="rgb(26,126,117)" stroke-width="1.51"/><path d="M3349,177L3170,-184L3033,-122Z" fill="rgb(27,113,110)" stroke="rgb(27,113,110)" stroke-width="1.51"/><path d="M3577,-89L3170,-184L3349,177Z" fill="rgb(27,110,109)" stroke="rgb(27,110,109)" stroke-width="1.51"/><path d="M3170,-184L2926,-374L3033,-122Z" fill="rgb(27,114,111)" stroke="rgb(27,114,111)" stroke-width="1.51"/><path d="M959,-357L666,-198L879,-85Z" fill="rgb(23,139,123)" stroke="rgb(23,139,123)" stroke-width="1.51"/><path d="M3942,1119L3745,736L3506,1069Z" fill="rgb(26,87,98)" stroke="rgb(26,87,98)" stroke-width="1.51"/><path d="M3670,1395L3942,1119L3506,1069Z" fill="rgb(26,84,96)" stroke="rgb(26,84,96)" stroke-width="1.51"/><path d="M3891,1601L3837,1442L3568,1651Z" fill="rgb(24,76,92)" stroke="rgb(24,76,92)" stroke-width="1.51"/><path d="M75,1984L207,2071L202,1736Z" fill="rgb(27,107,108)" stroke="rgb(27,107,108)" stroke-width="1.51"/><path d="M202,1736L207,2071L518,2023Z" fill="rgb(28,106,107)" stroke="rgb(28,106,107)" stroke-width="1.51"/><path d="M84,1181L-38,1305L180,1344Z" fill="rgb(27,122,115)" stroke="rgb(27,122,115)" stroke-width="1.51"/><path d="M-85,876L84,1181L244,699Z" fill="rgb(25,129,118)" stroke="rgb(25,129,118)" stroke-width="1.51"/><path d="M237,2350L674,2245L518,2023Z" fill="rgb(27,100,104)" stroke="rgb(27,100,104)" stroke-width="1.51"/><path d="M862,2510L327,2639L1581,2632Z" fill="rgb(27,95,102)" stroke="rgb(27,95,102)" stroke-width="1.51"/><path d="M3929,1986L3891,1601L3568,1651Z" fill="rgb(24,72,90)" stroke="rgb(24,72,90)" stroke-width="1.51"/><path d="M2932,2618L3232,2656L3169,2175Z" fill="rgb(24,71,90)" stroke="rgb(24,71,90)" stroke-width="1.51"/><path d="M2752,2652L3232,2656L2932,2618Z" fill="rgb(24,73,91)" stroke="rgb(24,73,91)" stroke-width="1.51"/><path d="M3950,430L3640,188L3638,547Z" fill="rgb(28,99,103)" stroke="rgb(28,99,103)" stroke-width="1.51"/><path d="M3638,547L3640,188L3349,177Z" fill="rgb(27,102,105)" stroke="rgb(27,102,105)" stroke-width="1.51"/><path d="M3837,1442L3942,1119L3670,1395Z" fill="rgb(25,80,94)" stroke="rgb(25,80,94)" stroke-width="1.51"/><path d="M3929,1986L3568,1651L3487,1906Z" fill="rgb(24,72,90)" stroke="rgb(24,72,90)" stroke-width="1.51"/><path d="M207,2071L237,2350L518,2023Z" fill="rgb(27,101,105)" stroke="rgb(27,101,105)" stroke-width="1.51"/><path d="M-54,1761L75,1984L202,1736Z" fill="rgb(28,111,109)" stroke="rgb(28,111,109)" stroke-width="1.51"/><path d="M3745,736L3950,430L3638,547Z" fill="rgb(27,94,102)" stroke="rgb(27,94,102)" stroke-width="1.51"/><path d="M4056,1308L3942,1119L3837,1442Z" fill="rgb(25,80,94)" stroke="rgb(25,80,94)" stroke-width="1.51"/><path d="M1226,-437L686,-428L959,-357Z" fill="rgb(24,138,122)" stroke="rgb(24,138,122)" stroke-width="1.51"/><path d="M959,-357L686,-428L666,-198Z" fill="rgb(23,140,124)" stroke="rgb(23,140,124)" stroke-width="1.51"/><path d="M301,-201L61,244L382,249Z" fill="rgb(22,144,125)" stroke="rgb(22,144,125)" stroke-width="1.51"/><path d="M61,244L364,421L382,249Z" fill="rgb(23,139,124)" stroke="rgb(23,139,124)" stroke-width="1.51"/><path d="M-51,460L244,699L364,421Z" fill="rgb(24,136,122)" stroke="rgb(24,136,122)" stroke-width="1.51"/><path d="M3232,2656L3612,2300L3169,2175Z" fill="rgb(23,69,89)" stroke="rgb(23,69,89)" stroke-width="1.51"/><path d="M6,2162L237,2350L207,2071Z" fill="rgb(27,103,106)" stroke="rgb(27,103,106)" stroke-width="1.51"/><path d="M-38,1305L-54,1761L180,1344Z" fill="rgb(27,118,113)" stroke="rgb(27,118,113)" stroke-width="1.51"/><path d="M75,1984L6,2162L207,2071Z" fill="rgb(28,106,107)" stroke="rgb(28,106,107)" stroke-width="1.51"/><path d="M-293,1432L-54,1761L-38,1305Z" fill="rgb(27,118,113)" stroke="rgb(27,118,113)" stroke-width="1.51"/><path d="M301,-201L671,180L666,-198Z" fill="rgb(22,142,125)" stroke="rgb(22,142,125)" stroke-width="1.51"/><path d="M3640,188L3577,-89L3349,177Z" fill="rgb(27,107,107)" stroke="rgb(27,107,107)" stroke-width="1.51"/><path d="M3170,-184L3298,-403L2926,-374Z" fill="rgb(27,113,111)" stroke="rgb(27,113,111)" stroke-width="1.51"/><path d="M3831,90L3577,-89L3640,188Z" fill="rgb(28,105,107)" stroke="rgb(28,105,107)" stroke-width="1.51"/><path d="M3577,-89L3298,-403L3170,-184Z" fill="rgb(27,110,109)" stroke="rgb(27,110,109)" stroke-width="1.51"/><path d="M2926,-374L3298,-403L2761,-414Z" fill="rgb(27,115,111)" stroke="rgb(27,115,111)" stroke-width="1.51"/><path d="M61,244L-51,460L364,421Z" fill="rgb(23,139,124)" stroke="rgb(23,139,124)" stroke-width="1.51"/><path d="M686,-428L301,-201L666,-198Z" fill="rgb(22,142,125)" stroke="rgb(22,142,125)" stroke-width="1.51"/><path d="M3891,1601L4056,1308L3837,1442Z" fill="rgb(25,77,93)" stroke="rgb(25,77,93)" stroke-width="1.51"/><path d="M4137,581L3950,430L3745,736Z" fill="rgb(27,94,101)" stroke="rgb(27,94,101)" stroke-width="1.51"/><path d="M4178,1764L4056,1308L3891,1601Z" fill="rgb(24,75,92)" stroke="rgb(24,75,92)" stroke-width="1.51"/><path d="M-325,1934L6,2162L75,1984Z" fill="rgb(27,108,108)" stroke="rgb(27,108,108)" stroke-width="1.51"/><path d="M4086,846L3745,736L3942,1119Z" fill="rgb(26,87,98)" stroke="rgb(26,87,98)" stroke-width="1.51"/><path d="M55,2554L327,2639L237,2350Z" fill="rgb(27,103,106)" stroke="rgb(27,103,106)" stroke-width="1.51"/><path d="M237,2350L327,2639L491,2521Z" fill="rgb(27,101,105)" stroke="rgb(27,101,105)" stroke-width="1.51"/><path d="M491,2521L327,2639L862,2510Z" fill="rgb(27,99,104)" stroke="rgb(27,99,104)" stroke-width="1.51"/><path d="M1581,2632L327,2639L2752,2652Z" fill="rgb(26,88,98)" stroke="rgb(26,88,98)" stroke-width="1.51"/><path d="M2752,2652L327,2639L3232,2656Z" fill="rgb(26,82,95)" stroke="rgb(26,82,95)" stroke-width="1.51"/><path d="M3612,2300L3929,1986L3487,1906Z" fill="rgb(23,67,88)" stroke="rgb(23,67,88)" stroke-width="1.51"/><path d="M4246,1053L4086,846L3942,1119Z" fill="rgb(26,86,97)" stroke="rgb(26,86,97)" stroke-width="1.51"/><path d="M3577,-89L3521,-418L3298,-403Z" fill="rgb(27,109,109)" stroke="rgb(27,109,109)" stroke-width="1.51"/><path d="M3950,430L3831,90L3640,188Z" fill="rgb(27,101,104)" stroke="rgb(27,101,104)" stroke-width="1.51"/><path d="M-54,1761L-325,1934L75,1984Z" fill="rgb(27,110,109)" stroke="rgb(27,110,109)" stroke-width="1.51"/><path d="M-372,1087L-293,1432L-38,1305Z" fill="rgb(26,123,115)" stroke="rgb(26,123,115)" stroke-width="1.51"/><path d="M-372,1087L-38,1305L-85,876Z" fill="rgb(26,127,117)" stroke="rgb(26,127,117)" stroke-width="1.51"/><path d="M3612,2300L3879,2268L3929,1986Z" fill="rgb(22,64,86)" stroke="rgb(22,64,86)" stroke-width="1.51"/><path d="M4178,1764L4246,1053L4056,1308Z" fill="rgb(25,79,93)" stroke="rgb(25,79,93)" stroke-width="1.51"/><path d="M3827,2626L3879,2268L3612,2300Z" fill="rgb(22,64,86)" stroke="rgb(22,64,86)" stroke-width="1.51"/><path d="M-51,460L-303,810L-85,876Z" fill="rgb(25,134,121)" stroke="rgb(25,134,121)" stroke-width="1.51"/><path d="M-417,477L-303,810L-51,460Z" fill="rgb(24,137,122)" stroke="rgb(24,137,122)" stroke-width="1.51"/><path d="M-256,210L-51,460L61,244Z" fill="rgb(22,142,125)" stroke="rgb(22,142,125)" stroke-width="1.51"/><path d="M3923,-441L3521,-418L3577,-89Z" fill="rgb(28,107,108)" stroke="rgb(28,107,108)" stroke-width="1.51"/><path d="M3298,-403L3521,-418L2761,-414Z" fill="rgb(27,113,110)" stroke="rgb(27,113,110)" stroke-width="1.51"/><path d="M2761,-414L334,-504L1226,-437Z" fill="rgb(25,132,120)" stroke="rgb(25,132,120)" stroke-width="1.51"/><path d="M3232,2656L3644,2651L3612,2300Z" fill="rgb(23,67,88)" stroke="rgb(23,67,88)" stroke-width="1.51"/><path d="M3950,430L4050,216L3831,90Z" fill="rgb(27,100,104)" stroke="rgb(27,100,104)" stroke-width="1.51"/><path d="M3831,90L3942,-116L3577,-89Z" fill="rgb(27,106,107)" stroke="rgb(27,106,107)" stroke-width="1.51"/><path d="M4086,846L4137,581L3745,736Z" fill="rgb(27,91,100)" stroke="rgb(27,91,100)" stroke-width="1.51"/><path d="M4246,1053L4137,581L4086,846Z" fill="rgb(26,89,99)" stroke="rgb(26,89,99)" stroke-width="1.51"/><path d="M-303,810L-372,1087L-85,876Z" fill="rgb(25,130,119)" stroke="rgb(25,130,119)" stroke-width="1.51"/><path d="M-65,-159L-256,210L61,244Z" fill="rgb(21,147,127)" stroke="rgb(21,147,127)" stroke-width="1.51"/><path d="M686,-428L334,-504L301,-201Z" fill="rgb(22,144,125)" stroke="rgb(22,144,125)" stroke-width="1.51"/><path d="M1226,-437L334,-504L686,-428Z" fill="rgb(23,140,124)" stroke="rgb(23,140,124)" stroke-width="1.51"/><path d="M3923,-441L334,-504L2761,-414Z" fill="rgb(26,122,115)" stroke="rgb(26,122,115)" stroke-width="1.51"/><path d="M6,2162L55,2554L237,2350Z" fill="rgb(27,104,106)" stroke="rgb(27,104,106)" stroke-width="1.51"/><path d="M-223,2335L55,2554L6,2162Z" fill="rgb(27,105,107)" stroke="rgb(27,105,107)" stroke-width="1.51"/><path d="M4178,1764L3891,1601L3929,1986Z" fill="rgb(24,71,90)" stroke="rgb(24,71,90)" stroke-width="1.51"/><path d="M4056,1308L4246,1053L3942,1119Z" fill="rgb(26,83,95)" stroke="rgb(26,83,95)" stroke-width="1.51"/><path d="M4253,1946L4178,1764L3929,1986Z" fill="rgb(23,69,89)" stroke="rgb(23,69,89)" stroke-width="1.51"/><path d="M4137,581L4050,216L3950,430Z" fill="rgb(27,97,103)" stroke="rgb(27,97,103)" stroke-width="1.51"/><path d="M-407,1663L-325,1934L-54,1761Z" fill="rgb(27,113,110)" stroke="rgb(27,113,110)" stroke-width="1.51"/><path d="M-407,1663L-54,1761L-293,1432Z" fill="rgb(27,116,112)" stroke="rgb(27,116,112)" stroke-width="1.51"/><path d="M-372,1087L-407,1663L-293,1432Z" fill="rgb(27,120,114)" stroke="rgb(27,120,114)" stroke-width="1.51"/><path d="M-65,-159L61,244L301,-201Z" fill="rgb(21,148,127)" stroke="rgb(21,148,127)" stroke-width="1.51"/><path d="M-303,810L-417,477L-372,1087Z" fill="rgb(25,133,120)" stroke="rgb(25,133,120)" stroke-width="1.51"/><path d="M18,-400L-65,-159L301,-201Z" fill="rgb(21,148,127)" stroke="rgb(21,148,127)" stroke-width="1.51"/><path d="M4136,2350L4253,1946L3929,1986Z" fill="rgb(23,65,87)" stroke="rgb(23,65,87)" stroke-width="1.51"/><path d="M3644,2651L3827,2626L3612,2300Z" fill="rgb(23,65,87)" stroke="rgb(23,65,87)" stroke-width="1.51"/><path d="M4050,216L3942,-116L3831,90Z" fill="rgb(27,104,106)" stroke="rgb(27,104,106)" stroke-width="1.51"/><path d="M-374,2545L-223,2335L-325,1934Z" fill="rgb(27,105,107)" stroke="rgb(27,105,107)" stroke-width="1.51"/><path d="M-325,1934L-223,2335L6,2162Z" fill="rgb(27,106,107)" stroke="rgb(27,106,107)" stroke-width="1.51"/><path d="M-372,1087L-417,477L-407,1663Z" fill="rgb(26,127,117)" stroke="rgb(26,127,117)" stroke-width="1.51"/><path d="M-256,210L-417,477L-51,460Z" fill="rgb(23,141,125)" stroke="rgb(23,141,125)" stroke-width="1.51"/><path d="M-381,-208L-417,477L-256,210Z" fill="rgb(21,145,127)" stroke="rgb(21,145,127)" stroke-width="1.51"/><path d="M4178,1764L4253,1946L4246,1053Z" fill="rgb(24,74,91)" stroke="rgb(24,74,91)" stroke-width="1.51"/><path d="M4136,2350L3929,1986L3879,2268Z" fill="rgb(22,64,86)" stroke="rgb(22,64,86)" stroke-width="1.51"/><path d="M-65,-159L-381,-208L-256,210Z" fill="rgb(20,149,128)" stroke="rgb(20,149,128)" stroke-width="1.51"/><path d="M334,-504L18,-400L301,-201Z" fill="rgb(21,146,127)" stroke="rgb(21,146,127)" stroke-width="1.51"/><path d="M4079,2561L4136,2350L3879,2268Z" fill="rgb(22,64,86)" stroke="rgb(22,64,86)" stroke-width="1.51"/><path d="M3827,2626L4079,2561L3879,2268Z" fill="rgb(22,64,86)" stroke="rgb(22,64,86)" stroke-width="1.51"/><path d="M4136,2350L4079,2561L4253,1946Z" fill="rgb(22,64,86)" stroke="rgb(22,64,86)" stroke-width="1.51"/><path d="M4050,216L4194,-28L3942,-116Z" fill="rgb(27,105,107)" stroke="rgb(27,105,107)" stroke-width="1.51"/><path d="M3942,-116L3923,-441L3577,-89Z" fill="rgb(27,106,107)" stroke="rgb(27,106,107)" stroke-width="1.51"/><path d="M4137,581L4194,-28L4050,216Z" fill="rgb(27,100,104)" stroke="rgb(27,100,104)" stroke-width="1.51"/><path d="M4246,1053L4194,-28L4137,581Z" fill="rgb(27,95,102)" stroke="rgb(27,95,102)" stroke-width="1.51"/><path d="M4096,-334L3923,-441L3942,-116Z" fill="rgb(27,105,107)" stroke="rgb(27,105,107)" stroke-width="1.51"/><path d="M3521,-418L3923,-441L2761,-414Z" fill="rgb(27,110,109)" stroke="rgb(27,110,109)" stroke-width="1.51"/><path d="M4194,-28L4096,-334L3942,-116Z" fill="rgb(27,105,107)" stroke="rgb(27,105,107)" stroke-width="1.51"/><path d="M-223,2335L-374,2545L55,2554Z" fill="rgb(27,105,107)" stroke="rgb(27,105,107)" stroke-width="1.51"/><path d="M55,2554L-374,2545L327,2639Z" fill="rgb(27,105,107)" stroke="rgb(27,105,107)" stroke-width="1.51"/><path d="M-407,1663L-374,2545L-325,1934Z" fill="rgb(27,107,108)" stroke="rgb(27,107,108)" stroke-width="1.51"/><path d="M-335,-498L-381,-208L-65,-159Z" fill="rgb(20,149,128)" stroke="rgb(20,149,128)" stroke-width="1.51"/><path d="M18,-400L-335,-498L-65,-159Z" fill="rgb(20,149,128)" stroke="rgb(20,149,128)" stroke-width="1.51"/><path d="M334,-504L-335,-498L18,-400Z" fill="rgb(20,149,128)" stroke="rgb(20,149,128)" stroke-width="1.51"/></svg>